<svg width="549" height="621" viewBox="0 0 549 621" fill="none" xmlns="http://www.w3.org/2000/svg">
<path d="M258 343H279C287.837 343 295 350.163 295 359V371C295 377.627 289.627 383 283 383H270C263.373 383 258 377.627 258 371V343Z" fill="#A3CDEB"/>
<rect x="255" y="383" width="20" height="130" fill="#0E3552"/>
<rect x="255" y="368" width="20" height="155" fill="#0E3552"/>
<path d="M258 523C258 517.477 262.477 513 268 513H275C286.046 513 295 521.954 295 533V539C295 541.761 292.761 544 290 544H263C260.239 544 258 541.761 258 539V523Z" fill="#A3CDEB"/>
<path d="M236 359C236 350.163 243.163 343 252 343H263C271.837 343 279 350.163 279 359V371C279 377.627 273.627 383 267 383H248C241.373 383 236 377.627 236 371V359Z" fill="#326D98"/>
<path d="M245 523C245 517.477 249.477 513 255 513H265C276.046 513 285 521.954 285 533V539C285 541.761 282.761 544 280 544H250C247.239 544 245 541.761 245 539V523Z" fill="#326D98"/>
<rect x="328" y="371" width="20" height="155" fill="#0E3552"/>
<path d="M331 343H352C360.837 343 368 350.163 368 359V371C368 377.627 362.627 383 356 383H343C336.373 383 331 377.627 331 371V343Z" fill="#A3CDEB"/>
<path d="M331 525C331 519.477 335.477 515 341 515H348C359.046 515 368 523.954 368 535V541C368 543.761 365.761 546 363 546H336C333.239 546 331 543.761 331 541V525Z" fill="#A3CDEB"/>
<path d="M309 359C309 350.163 316.163 343 325 343H336C344.837 343 352 350.163 352 359V371C352 377.627 346.627 383 340 383H321C314.373 383 309 377.627 309 371V359Z" fill="#326D98"/>
<path d="M318 525C318 519.477 322.477 515 328 515H338C349.046 515 358 523.954 358 535V541C358 543.761 355.761 546 353 546H323C320.239 546 318 543.761 318 541V525Z" fill="#326D98"/>
<path d="M377 266H403C411.837 266 419 273.163 419 282V338C419 340.761 416.761 343 414 343H382C379.239 343 377 340.761 377 338V266Z" fill="#A3CDEB"/>
<path d="M355 282C355 273.163 362.163 266 371 266H382C390.837 266 398 273.163 398 282V338C398 340.761 395.761 343 393 343H360C357.239 343 355 340.761 355 338V282Z" fill="#326D98"/>
<rect x="377" y="343" width="20" height="64" fill="#0E3552"/>
<path d="M374 412C374 409.239 376.239 407 379 407H406C408.761 407 411 409.239 411 412V430C411 438.837 403.837 446 395 446H390C381.163 446 374 438.837 374 430V412Z" fill="#A3CDEB"/>
<path d="M363 412C363 409.239 365.239 407 368 407H396C398.761 407 401 409.239 401 412V430C401 438.837 393.837 446 385 446H379C370.163 446 363 438.837 363 430V412Z" fill="#326D98"/>
<path d="M188 285C188 257.386 210.386 235 238 235H358C385.614 235 408 257.386 408 285V326C408 344.225 393.225 359 375 359H221C202.775 359 188 344.225 188 326V285Z" fill="#A3CDEB"/>
<path d="M188 271.5C188 251.342 204.342 235 224.5 235V235C244.658 235 261 251.342 261 271.5V338C261 349.598 251.598 359 240 359H209C197.402 359 188 349.598 188 338V271.5Z" fill="#326D98"/>
<g filter="url(#filter0_d_6_89)">
<rect x="293" y="215" width="33" height="31" rx="8" fill="#0E3552"/>
</g>
<rect x="277" y="302" width="20" height="20" rx="7" fill="#326D98"/>
<rect x="284" y="302" width="20" height="20" rx="7" fill="#F14040"/>
<path d="M274 271C274 268.239 276.239 266 279 266H382C384.761 266 387 268.239 387 271V276C387 278.761 384.761 281 382 281H279C276.239 281 274 278.761 274 276V271Z" fill="#0E3552"/>
<rect x="274" y="266" width="113" height="15" rx="5" fill="#0E3552"/>
<path d="M322.32 277V273.735H319.72V277H318.855V270.115H319.72V273.025H322.32V270.115H323.185V277H322.32ZM326.391 270.825V273.145H328.941V273.86H326.391V276.305H329.521V277H325.521V270.115H329.431L329.331 270.825H326.391ZM331.867 277V270.115H332.737V276.225H335.877L335.777 277H331.867ZM338.113 277V270.115H338.983V276.225H342.123L342.023 277H338.113ZM348.539 273.565C348.539 274.258 348.444 274.873 348.254 275.41C348.067 275.943 347.786 276.362 347.409 276.665C347.032 276.965 346.564 277.115 346.004 277.115C345.447 277.115 344.979 276.968 344.599 276.675C344.222 276.378 343.939 275.965 343.749 275.435C343.562 274.905 343.469 274.285 343.469 273.575C343.469 272.878 343.562 272.262 343.749 271.725C343.939 271.188 344.222 270.768 344.599 270.465C344.979 270.158 345.447 270.005 346.004 270.005C346.564 270.005 347.032 270.153 347.409 270.45C347.786 270.747 348.067 271.162 348.254 271.695C348.444 272.228 348.539 272.852 348.539 273.565ZM347.629 273.565C347.629 272.648 347.502 271.947 347.249 271.46C346.999 270.973 346.584 270.73 346.004 270.73C345.424 270.73 345.007 270.975 344.754 271.465C344.504 271.955 344.379 272.658 344.379 273.575C344.379 274.492 344.509 275.19 344.769 275.67C345.029 276.147 345.441 276.385 346.004 276.385C346.584 276.385 346.999 276.145 347.249 275.665C347.502 275.182 347.629 274.482 347.629 273.565Z" fill="#48F82C"/>
<path d="M322.32 277H320.82V278.5H322.32V277ZM322.32 273.735H323.82V272.235H322.32V273.735ZM319.72 273.735V272.235H318.22V273.735H319.72ZM319.72 277V278.5H321.22V277H319.72ZM318.855 277H317.355V278.5H318.855V277ZM318.855 270.115V268.615H317.355V270.115H318.855ZM319.72 270.115H321.22V268.615H319.72V270.115ZM319.72 273.025H318.22V274.525H319.72V273.025ZM322.32 273.025V274.525H323.82V273.025H322.32ZM322.32 270.115V268.615H320.82V270.115H322.32ZM323.185 270.115H324.685V268.615H323.185V270.115ZM323.185 277V278.5H324.685V277H323.185ZM323.82 277V273.735H320.82V277H323.82ZM322.32 272.235H319.72V275.235H322.32V272.235ZM318.22 273.735V277H321.22V273.735H318.22ZM319.72 275.5H318.855V278.5H319.72V275.5ZM320.355 277V270.115H317.355V277H320.355ZM318.855 271.615H319.72V268.615H318.855V271.615ZM318.22 270.115V273.025H321.22V270.115H318.22ZM319.72 274.525H322.32V271.525H319.72V274.525ZM323.82 273.025V270.115H320.82V273.025H323.82ZM322.32 271.615H323.185V268.615H322.32V271.615ZM321.685 270.115V277H324.685V270.115H321.685ZM323.185 275.5H322.32V278.5H323.185V275.5ZM326.391 270.825V269.325H324.891V270.825H326.391ZM326.391 273.145H324.891V274.645H326.391V273.145ZM328.941 273.145H330.441V271.645H328.941V273.145ZM328.941 273.86V275.36H330.441V273.86H328.941ZM326.391 273.86V272.36H324.891V273.86H326.391ZM326.391 276.305H324.891V277.805H326.391V276.305ZM329.521 276.305H331.021V274.805H329.521V276.305ZM329.521 277V278.5H331.021V277H329.521ZM325.521 277H324.021V278.5H325.521V277ZM325.521 270.115V268.615H324.021V270.115H325.521ZM329.431 270.115L330.916 270.324L331.157 268.615H329.431V270.115ZM329.331 270.825V272.325H330.634L330.816 271.034L329.331 270.825ZM324.891 270.825V273.145H327.891V270.825H324.891ZM326.391 274.645H328.941V271.645H326.391V274.645ZM327.441 273.145V273.86H330.441V273.145H327.441ZM328.941 272.36H326.391V275.36H328.941V272.36ZM324.891 273.86V276.305H327.891V273.86H324.891ZM326.391 277.805H329.521V274.805H326.391V277.805ZM328.021 276.305V277H331.021V276.305H328.021ZM329.521 275.5H325.521V278.5H329.521V275.5ZM327.021 277V270.115H324.021V277H327.021ZM325.521 271.615H329.431V268.615H325.521V271.615ZM327.945 269.906L327.845 270.616L330.816 271.034L330.916 270.324L327.945 269.906ZM329.331 269.325H326.391V272.325H329.331V269.325ZM331.867 277H330.367V278.5H331.867V277ZM331.867 270.115V268.615H330.367V270.115H331.867ZM332.737 270.115H334.237V268.615H332.737V270.115ZM332.737 276.225H331.237V277.725H332.737V276.225ZM335.877 276.225L337.364 276.417L337.583 274.725H335.877V276.225ZM335.777 277V278.5H337.096L337.264 277.192L335.777 277ZM333.367 277V270.115H330.367V277H333.367ZM331.867 271.615H332.737V268.615H331.867V271.615ZM331.237 270.115V276.225H334.237V270.115H331.237ZM332.737 277.725H335.877V274.725H332.737V277.725ZM334.389 276.033L334.289 276.808L337.264 277.192L337.364 276.417L334.389 276.033ZM335.777 275.5H331.867V278.5H335.777V275.5ZM338.113 277H336.613V278.5H338.113V277ZM338.113 270.115V268.615H336.613V270.115H338.113ZM338.983 270.115H340.483V268.615H338.983V270.115ZM338.983 276.225H337.483V277.725H338.983V276.225ZM342.123 276.225L343.61 276.417L343.829 274.725H342.123V276.225ZM342.023 277V278.5H343.342L343.51 277.192L342.023 277ZM339.613 277V270.115H336.613V277H339.613ZM338.113 271.615H338.983V268.615H338.113V271.615ZM337.483 270.115V276.225H340.483V270.115H337.483ZM338.983 277.725H342.123V274.725H338.983V277.725ZM340.635 276.033L340.535 276.808L343.51 277.192L343.61 276.417L340.635 276.033ZM342.023 275.5H338.113V278.5H342.023V275.5ZM348.254 275.41L346.84 274.909L346.838 274.914L348.254 275.41ZM347.409 276.665L348.343 277.838L348.35 277.833L347.409 276.665ZM344.599 276.675L343.671 277.853L343.677 277.858L343.682 277.862L344.599 276.675ZM343.749 275.435L342.334 275.933L342.337 275.941L343.749 275.435ZM343.749 271.725L342.335 271.224L342.332 271.232L343.749 271.725ZM344.599 270.465L345.54 271.633L345.541 271.632L344.599 270.465ZM347.409 270.45L348.337 269.272V269.272L347.409 270.45ZM348.254 271.695L346.838 272.191L346.841 272.198L348.254 271.695ZM347.249 271.46L345.915 272.145L345.918 272.153L347.249 271.46ZM344.754 271.465L343.421 270.776L343.418 270.783L344.754 271.465ZM344.769 275.67L343.45 276.384L343.452 276.388L344.769 275.67ZM347.249 275.665L345.92 274.969L345.919 274.972L347.249 275.665ZM347.039 273.565C347.039 274.124 346.962 274.564 346.84 274.909L349.668 275.911C349.926 275.182 350.039 274.393 350.039 273.565H347.039ZM346.838 274.914C346.728 275.229 346.592 275.397 346.468 275.497L348.35 277.833C348.979 277.327 349.406 276.658 349.67 275.906L346.838 274.914ZM346.474 275.492C346.405 275.547 346.282 275.615 346.004 275.615V278.615C346.846 278.615 347.659 278.383 348.343 277.838L346.474 275.492ZM346.004 275.615C345.724 275.615 345.592 275.547 345.515 275.488L343.682 277.862C344.365 278.39 345.171 278.615 346.004 278.615V275.615ZM345.527 275.497C345.408 275.403 345.273 275.241 345.161 274.929L342.337 275.941C342.605 276.689 343.037 277.354 343.671 277.853L345.527 275.497ZM345.164 274.937C345.046 274.603 344.969 274.158 344.969 273.575H341.969C341.969 274.412 342.078 275.207 342.334 275.933L345.164 274.937ZM344.969 273.575C344.969 273.01 345.045 272.565 345.166 272.218L342.332 271.232C342.08 271.959 341.969 272.747 341.969 273.575H344.969ZM345.163 272.226C345.277 271.904 345.415 271.733 345.54 271.633L343.658 269.297C343.029 269.803 342.601 270.473 342.335 271.224L345.163 272.226ZM345.541 271.632C345.617 271.571 345.739 271.505 346.004 271.505V268.505C345.155 268.505 344.341 268.746 343.657 269.298L345.541 271.632ZM346.004 271.505C346.286 271.505 346.412 271.574 346.481 271.628L348.337 269.272C347.653 268.733 346.842 268.505 346.004 268.505V271.505ZM346.481 271.628C346.596 271.719 346.729 271.878 346.838 272.191L349.67 271.199C349.406 270.446 348.975 269.774 348.337 269.272L346.481 271.628ZM346.841 272.198C346.961 272.534 347.039 272.981 347.039 273.565H350.039C350.039 272.723 349.927 271.922 349.667 271.192L346.841 272.198ZM349.129 273.565C349.129 272.549 348.995 271.566 348.579 270.767L345.918 272.153C346.009 272.327 346.129 272.747 346.129 273.565H349.129ZM348.583 270.775C348.346 270.314 347.995 269.903 347.509 269.619C347.028 269.337 346.506 269.23 346.004 269.23V272.23C346.044 272.23 346.058 272.234 346.052 272.233C346.044 272.231 346.021 272.224 345.991 272.206C345.961 272.189 345.938 272.168 345.922 272.151C345.907 272.134 345.906 272.129 345.915 272.145L348.583 270.775ZM346.004 269.23C345.5 269.23 344.977 269.338 344.496 269.621C344.011 269.906 343.659 270.316 343.421 270.776L346.086 272.154C346.096 272.135 346.097 272.139 346.083 272.154C346.069 272.17 346.046 272.19 346.017 272.207C345.988 272.224 345.966 272.231 345.958 272.233C345.951 272.234 345.964 272.23 346.004 272.23V269.23ZM343.418 270.783C343.011 271.581 342.879 272.56 342.879 273.575H345.879C345.879 272.757 345.997 272.329 346.09 272.147L343.418 270.783ZM342.879 273.575C342.879 274.592 343.016 275.583 343.45 276.384L346.088 274.956C346.002 274.797 345.879 274.391 345.879 273.575H342.879ZM343.452 276.388C343.695 276.833 344.045 277.229 344.521 277.504C344.994 277.778 345.507 277.885 346.004 277.885V274.885C345.969 274.885 345.958 274.881 345.966 274.883C345.975 274.885 345.997 274.892 346.024 274.908C346.052 274.924 346.073 274.942 346.086 274.956C346.098 274.969 346.096 274.971 346.086 274.952L343.452 276.388ZM346.004 277.885C346.502 277.885 347.022 277.781 347.501 277.503C347.986 277.223 348.34 276.817 348.579 276.358L345.919 274.972C345.911 274.986 345.913 274.98 345.929 274.962C345.945 274.944 345.97 274.924 345.999 274.907C346.028 274.89 346.05 274.883 346.056 274.882C346.061 274.881 346.046 274.885 346.004 274.885V277.885ZM348.577 276.361C348.995 275.564 349.129 274.58 349.129 273.565H346.129C346.129 274.384 346.009 274.799 345.92 274.969L348.577 276.361Z" fill="#BBFD50" fill-opacity="0.09"/>
<path d="M188 126C188 98.3858 210.386 76 238 76H363C390.614 76 413 98.3858 413 126V193C413 211.225 398.225 226 380 226H221C202.775 226 188 211.225 188 193V126Z" fill="#A3CDEB"/>
<path d="M188 112.5C188 92.3416 204.342 76 224.5 76V76C244.658 76 261 92.3416 261 112.5V193C261 211.225 246.225 226 228 226H221C202.775 226 188 211.225 188 193V112.5Z" fill="#326D98"/>
<rect x="314" y="178" width="38" height="12" rx="6" fill="#0E3552"/>
<path d="M274 117C274 111.477 278.477 107 284 107H381C386.523 107 391 111.477 391 117V141C391 146.523 386.523 151 381 151H284C278.477 151 274 146.523 274 141V117Z" fill="#0E3552"/>
<rect x="292" y="117" width="13" height="24" rx="4" fill="#FFFCFC"/>
<rect x="360" y="117" width="13" height="24" rx="4" fill="#FFFCFC"/>
<path d="M190 266H216C224.837 266 232 273.163 232 282V338C232 340.761 229.761 343 227 343H195C192.239 343 190 340.761 190 338V266Z" fill="#A3CDEB"/>
<path d="M168 282C168 273.163 175.163 266 184 266H195C203.837 266 211 273.163 211 282V338C211 340.761 208.761 343 206 343H173C170.239 343 168 340.761 168 338V282Z" fill="#326D98"/>
<rect x="190" y="343" width="20" height="64" fill="#0E3552"/>
<path d="M187 412C187 409.239 189.239 407 192 407H219C221.761 407 224 409.239 224 412V430C224 438.837 216.837 446 208 446H203C194.163 446 187 438.837 187 430V412Z" fill="#A3CDEB"/>
<path d="M176 412C176 409.239 178.239 407 181 407H209C211.761 407 214 409.239 214 412V430C214 438.837 206.837 446 198 446H192C183.163 446 176 438.837 176 430V412Z" fill="#326D98"/>
<defs>
<filter id="filter0_d_6_89" x="289" y="215" width="41" height="39" filterUnits="userSpaceOnUse" color-interpolation-filters="sRGB">
<feFlood flood-opacity="0" result="BackgroundImageFix"/>
<feColorMatrix in="SourceAlpha" type="matrix" values="0 0 0 0 0 0 0 0 0 0 0 0 0 0 0 0 0 0 127 0" result="hardAlpha"/>
<feOffset dy="4"/>
<feGaussianBlur stdDeviation="2"/>
<feComposite in2="hardAlpha" operator="out"/>
<feColorMatrix type="matrix" values="0 0 0 0 0 0 0 0 0 0 0 0 0 0 0 0 0 0 0.25 0"/>
<feBlend mode="normal" in2="BackgroundImageFix" result="effect1_dropShadow_6_89"/>
<feBlend mode="normal" in="SourceGraphic" in2="effect1_dropShadow_6_89" result="shape"/>
</filter>
</defs>
</svg>
