<svg width="128" height="128" viewBox="0 0 128 128" fill="none" xmlns="http://www.w3.org/2000/svg">
<path d="M102.189 47.0199L102.188 63.6645C102.056 64.1333 101.905 64.6022 101.751 65.066C101.745 65.0735 101.742 65.0832 101.743 65.0929C101.743 65.1014 101.743 65.1014 101.733 65.1106C99.8687 70.6541 96.7268 75.6816 92.5612 79.7872C88.3956 83.8928 83.3233 86.9615 77.7532 88.7456C76.8064 89.0461 75.8511 89.3113 74.8774 89.5326C74.8664 89.5373 74.8547 89.5403 74.8427 89.5418C72.094 90.1721 69.2829 90.4896 66.4628 90.4886H66.0824C70.6221 90.1516 74.9977 88.6474 78.785 86.122C82.5723 83.5965 85.6431 80.1355 87.6994 76.0743L87.6994 76.0658C89.4335 72.6504 90.403 68.8983 90.5404 65.0703C90.678 61.2424 89.9802 57.4304 88.4956 53.8994C88.3011 52.9879 88.0713 52.085 87.8033 51.1975C87.6965 50.8263 87.5693 50.4416 87.449 50.0739C87.3783 49.8434 87.2984 49.6136 87.2185 49.3923C87.1217 49.1271 87.0326 48.8528 86.918 48.5869C86.8473 48.4016 86.7766 48.2065 86.6967 48.012C86.5553 47.6585 86.4046 47.2957 86.2547 46.9323C86.0773 46.5342 85.9097 46.1361 85.7145 45.7472C85.6077 45.5343 85.5116 45.3307 85.3956 45.1185C85.3079 44.9149 85.1927 44.7021 85.0859 44.4991C84.9791 44.2962 84.8646 44.0741 84.7415 43.862C84.5817 43.5438 84.3965 43.2426 84.219 42.9421C83.9807 42.5256 83.724 42.119 83.4765 41.7117C83.4497 41.7032 83.4489 41.694 83.4405 41.6672C83.1746 41.2514 82.9002 40.8356 82.6089 40.4467C82.3345 40.0394 82.0425 39.6328 81.7328 39.2425C81.4231 38.8522 81.1395 38.4555 80.8128 38.0751C80.7856 38.0545 80.7641 38.0273 80.7506 37.9959C80.4593 37.6423 80.1673 37.2965 79.8484 36.9607C79.521 36.5894 79.1936 36.2352 78.84 35.8816C78.5034 35.5182 78.1584 35.1731 77.7864 34.828C77.4598 34.5098 77.114 34.1909 76.7526 33.8819L76.7003 33.8296C76.5143 33.6705 76.3277 33.5022 76.1424 33.3523C75.948 33.1833 75.7528 33.0249 75.5583 32.8743C75.1864 32.5646 74.789 32.2549 74.3902 31.9621C74.1866 31.8037 73.9829 31.6439 73.7708 31.5025C73.5586 31.3611 73.3458 31.2105 73.1429 31.0598C73.0545 30.9983 72.9661 30.9453 72.877 30.8831C72.4973 30.6264 72.0985 30.3704 71.7004 30.1222C71.24 29.8302 70.7712 29.5551 70.2932 29.2907C70.1073 29.1839 69.9305 29.0778 69.736 28.9894C69.5501 28.8827 69.3733 28.795 69.1788 28.6981C69.0014 28.5961 68.8182 28.5045 68.6301 28.4238C68.2143 28.2116 67.7816 28.008 67.3474 27.8128C67.2237 27.7513 67.0907 27.6891 66.9585 27.636C66.6488 27.4946 66.3299 27.3794 66.0074 27.2507C65.949 27.2191 65.8868 27.1954 65.8222 27.1799C65.6009 27.0817 65.3795 26.9933 65.149 26.9141C64.9185 26.8349 64.7255 26.755 64.4949 26.6843L64.4836 26.6715L64.4744 26.6623C64.2623 26.5832 64.0417 26.5124 63.8112 26.4417C63.4392 26.3088 63.0595 26.2034 62.6869 26.0882L81.2428 26.0882C83.9937 26.0842 86.7183 26.6229 89.2606 27.6735C91.8029 28.724 94.113 30.2658 96.0587 32.2105C98.0043 34.1552 99.5472 36.4646 100.599 39.0065C101.651 41.5483 102.191 44.2727 102.188 47.0235L102.189 47.0199Z" fill="url(#paint0_linear_6_71)"/>
<path d="M102.186 63.6664L102.186 81.2402C102.191 83.9919 101.652 86.7176 100.601 89.2607C99.55 91.8039 98.0074 94.1146 96.0615 96.0604C94.1157 98.0062 91.805 99.5489 89.2619 100.6C86.7187 101.651 83.9931 102.19 81.2413 102.185L58.9073 102.185C58.4293 101.937 57.952 101.681 57.4825 101.406L57.474 101.406C57.4648 101.397 57.4648 101.397 57.4556 101.398C56.1604 100.65 54.9107 99.8251 53.7136 98.9284C47.2991 94.1428 42.6007 87.4143 40.3175 79.7439C39.7985 78.0177 39.4108 76.2549 39.1578 74.4703L39.1578 74.4519C39.0334 73.6119 38.9358 72.7535 38.875 71.895C40.5361 77.2985 43.8862 82.0268 48.4331 85.3858C52.9799 88.7447 58.484 90.5572 64.1371 90.557C64.8018 90.557 65.4473 90.5393 66.0844 90.4863L66.4649 90.4863C69.285 90.4873 72.0961 90.1697 74.8448 89.5395C74.8567 89.5379 74.8683 89.5349 74.8794 89.5303C75.8531 89.309 76.8084 89.0438 77.7552 88.7433C83.3252 86.9592 88.3977 83.8905 92.5633 79.7849C96.7288 75.6793 99.8706 70.6517 101.735 65.1082C101.745 65.099 101.745 65.099 101.745 65.0906C101.744 65.0808 101.747 65.0711 101.753 65.0637C101.905 64.6019 102.056 64.1331 102.186 63.6664Z" fill="url(#paint1_linear_6_71)"/>
<path d="M58.9095 102.183H47.0301C41.4754 102.182 36.1481 99.9758 32.2203 96.048C28.2924 92.1201 26.0858 86.7929 26.0856 81.2381V63.2041C26.4392 62.2933 26.8288 61.3903 27.2538 60.5142L27.2714 60.4966C27.5012 60.0193 27.7395 59.5504 27.9969 59.0894C28.1468 58.8066 28.3066 58.5237 28.4573 58.2402C28.7754 57.7098 29.0859 57.1873 29.421 56.6739C29.7399 56.1783 30.0581 55.6918 30.4032 55.2053C30.7483 54.7188 31.1117 54.2493 31.4745 53.7805C31.8372 53.3116 32.2176 52.8605 32.5981 52.4179C32.9785 51.9752 33.3766 51.5333 33.7924 51.0991C34.2081 50.6649 34.6162 50.2499 35.0489 49.8426C35.8981 49.0287 36.7926 48.2502 37.7211 47.5155C38.6332 46.79 39.5779 46.1197 40.553 45.4797C40.5785 45.4633 40.6052 45.4489 40.6329 45.4366C41.1187 45.1177 41.6236 44.8165 42.1178 44.5174C42.1468 44.5079 42.1737 44.493 42.197 44.4735L42.914 44.0747C43.5335 43.7381 44.1529 43.4199 44.7886 43.1208C45.0891 42.9702 45.3988 42.8373 45.7085 42.6959C46.0897 42.5283 46.4786 42.36 46.8597 42.2094C47.2217 42.0679 47.5937 41.9265 47.9649 41.7844L47.9833 41.7759C48.2131 41.696 48.4514 41.6076 48.6819 41.5284C49.0093 41.4216 49.3544 41.3071 49.691 41.2095C49.9259 41.1235 50.1649 41.0496 50.4073 40.9882C50.9913 40.8199 51.5839 40.6601 52.1771 40.5279C52.1379 40.5626 52.0965 40.5949 52.0534 40.6247C49.2581 42.0699 46.7414 43.9995 44.6203 46.324C41.5223 49.7194 39.3626 53.8634 38.3541 58.3477C37.3457 62.8321 37.5233 67.5018 38.8694 71.8965C38.9302 72.755 39.0292 73.612 39.1522 74.4534V74.4718C39.4052 76.2564 39.7929 78.0193 40.3119 79.7454C42.5951 87.4158 47.2935 94.1443 53.708 98.9299C54.9052 99.8266 56.1548 100.651 57.45 101.399C57.4592 101.398 57.4592 101.398 57.4684 101.408H57.4769C57.9542 101.678 58.4308 101.936 58.9095 102.183Z" fill="url(#paint2_linear_6_71)"/>
<path d="M88.472 53.7981C88.2868 52.9227 88.0654 52.0466 87.8095 51.1966C87.7296 50.9131 87.6327 50.6125 87.5351 50.3297C87.499 50.206 87.4729 50.1176 87.4552 50.073C87.3845 49.8425 87.3046 49.6127 87.2247 49.3914C87.1278 49.1262 87.0387 48.8519 86.9242 48.586C86.8534 48.4007 86.7827 48.2056 86.7028 48.0111C86.5614 47.6575 86.4108 47.2948 86.2609 46.9313C86.0834 46.5332 85.9059 46.1351 85.7207 45.7462C85.6139 45.5334 85.5177 45.3298 85.4018 45.1176C85.3049 44.9147 85.1988 44.7011 85.092 44.4982C84.9853 44.2953 84.8707 44.0732 84.7477 43.8611C84.5879 43.5429 84.4026 43.2417 84.2251 42.9411C83.9868 42.5247 83.7302 42.1181 83.4827 41.7108C83.4558 41.7023 83.4551 41.6931 83.4466 41.6662C83.1723 41.2505 82.8979 40.8432 82.6151 40.4458C82.3322 40.0484 82.0402 39.6404 81.7389 39.2416C81.4377 38.8428 81.1372 38.463 80.819 38.0741C80.7916 38.0537 80.7702 38.0263 80.7568 37.9949C80.4563 37.6407 80.1642 37.2963 79.8545 36.9597C79.5186 36.5885 79.1912 36.2342 78.8462 35.8807C78.5011 35.5271 78.1645 35.1722 77.7926 34.8271C77.4659 34.5089 77.1201 34.19 76.7588 33.881L76.7036 33.8258C76.5177 33.6667 76.331 33.4984 76.1457 33.3485L75.5617 32.8705C75.1897 32.5608 74.7923 32.2511 74.3935 31.9584C74.1899 31.8085 73.9777 31.6586 73.7741 31.4987C73.5704 31.3389 73.3491 31.2067 73.1462 31.0561C73.0578 30.9946 72.9694 30.9415 72.8803 30.8793C72.5006 30.6226 72.1018 30.3667 71.7037 30.1185C71.2434 29.8264 70.7745 29.5514 70.2965 29.2869C70.1106 29.1801 69.9338 29.0741 69.7393 28.9857C69.5534 28.8789 69.3766 28.7912 69.1821 28.6944C69.0047 28.5925 68.8214 28.5008 68.6334 28.42C68.2177 28.2079 67.7934 28.0042 67.3507 27.8091C67.227 27.7475 67.0941 27.6853 66.9618 27.6323C66.6429 27.4916 66.3332 27.3586 66.0108 27.2469C65.9524 27.2154 65.8901 27.1917 65.8255 27.1762C65.6042 27.0779 65.3829 26.9895 65.1523 26.9103C64.9218 26.8311 64.7288 26.7512 64.4983 26.6805L64.4834 26.6713L64.4742 26.6621C64.2621 26.5829 64.0415 26.5122 63.811 26.4415C63.439 26.3086 63.0593 26.2032 62.6867 26.088L47.0335 26.0873L47.025 26.0873C44.2755 26.0867 41.5528 26.6279 39.0125 27.6799C36.4722 28.7318 34.164 30.2739 32.2198 32.2181C30.2756 34.1623 28.7335 36.4705 27.6815 39.0108C26.6296 41.5511 26.0884 44.2738 26.089 47.0233L26.0889 63.2075C26.4517 62.2791 26.8498 61.3676 27.2839 60.4823C27.7874 59.4387 28.3446 58.4317 28.9386 57.4474C29.0885 57.1901 29.2568 56.9341 29.4251 56.6781C29.744 56.1824 30.0622 55.6959 30.4072 55.2095C30.7523 54.723 31.0974 54.2534 31.4785 53.7846C31.8321 53.325 32.204 52.864 32.6021 52.422C33.0002 51.9801 33.3813 51.5283 33.7964 51.1033C34.1945 50.6698 34.6195 50.2449 35.0529 49.8468C35.9022 49.0329 36.7959 48.2452 37.7251 47.5197C38.631 46.7992 39.5733 46.1258 40.5486 45.5023C40.5756 45.4786 40.6053 45.458 40.637 45.4408C41.1058 45.1303 41.5746 44.8383 42.0611 44.5555C43.6072 43.6645 45.2128 42.881 46.8666 42.2107C47.2286 42.0693 47.6005 41.9279 47.9718 41.7857L47.9902 41.7773C48.22 41.6973 48.4583 41.609 48.6888 41.5298C48.7284 41.5221 48.7671 41.51 48.804 41.4937C49.1053 41.3876 49.4058 41.2992 49.6978 41.2109C49.9326 41.1249 50.1717 41.0511 50.4141 40.9895C50.9982 40.8212 51.5907 40.6614 52.184 40.5292C52.1402 40.5561 52.1048 40.5999 52.0603 40.6261C52.1578 40.5738 52.2455 40.5384 52.3346 40.4847L52.3608 40.4854C56.0144 38.6483 60.0489 37.6963 64.1384 37.7064C70.8227 37.6987 77.2599 40.2326 82.1455 44.7945C82.1713 44.8131 82.1925 44.8373 82.2078 44.8652C83.7203 46.28 85.0597 47.8691 86.198 49.5993L86.2072 49.6085C86.4016 49.909 86.5961 50.2095 86.7827 50.5192C87.434 51.6028 88.0066 52.7316 88.4961 53.8971C88.4861 53.8646 88.478 53.8315 88.472 53.7981Z" fill="url(#paint3_linear_6_71)"/>
<g style="mix-blend-mode:multiply" opacity="0.08">
<g style="mix-blend-mode:multiply">
<path d="M102.186 47.8273L102.186 63.6664C99.9474 71.4071 95.252 78.2099 88.8083 83.048C82.3645 87.8861 74.522 90.4971 66.4642 90.487L66.0837 90.487C70.6234 90.15 74.9989 88.6458 78.7863 86.1204C82.5737 83.5949 85.6444 80.1339 87.7007 76.0726C87.7099 76.0634 87.7007 76.0642 87.7007 76.0642C93.1893 69.7695 98.4537 60.7532 102.186 47.8273Z" fill="black"/>
</g>
</g>
<g style="mix-blend-mode:multiply" opacity="0.08">
<g style="mix-blend-mode:multiply">
<path d="M69.2176 102.183L58.9094 102.183C53.2596 99.2674 48.4515 94.9524 44.9443 89.6497C41.4372 84.347 39.348 78.2338 38.8763 71.8937C40.2284 76.2976 42.7116 80.27 46.0782 83.4146C51.9626 91.6381 59.9566 98.122 69.2176 102.183Z" fill="black"/>
</g>
</g>
<g style="mix-blend-mode:multiply" opacity="0.08">
<g style="mix-blend-mode:multiply">
<path d="M52.1848 40.5257C52.1455 40.5605 52.1041 40.5928 52.061 40.6227C49.2657 42.0678 46.749 43.9975 44.6279 46.322C39.0892 51.1267 32.1955 58.8335 26.0897 70.7616L26.0903 63.2049C26.6353 61.7923 27.2738 60.4177 28.0017 59.0902C28.1516 58.8074 28.3114 58.5245 28.462 58.241C28.7802 57.7106 29.0906 57.1881 29.4258 56.6747C29.7447 56.179 30.0629 55.6925 30.4079 55.2061C30.753 54.7196 31.1165 54.25 31.4792 53.7812C31.842 53.3124 32.2224 52.8612 32.6029 52.4186C32.9833 51.9759 33.3813 51.5341 33.7971 51.0999C34.2129 50.6657 34.6209 50.2507 35.0536 49.8434C35.9029 49.0295 36.7974 48.251 37.7258 47.5163C38.638 46.7908 39.5827 46.1204 40.5578 45.4805C40.5833 45.464 40.61 45.4496 40.6377 45.4373C41.1235 45.1184 41.6283 44.8172 42.1226 44.5181C42.1516 44.5087 42.1784 44.4938 42.2018 44.4742L42.9189 44.0754C43.5383 43.7388 44.1577 43.4206 44.7934 43.1215C45.0939 42.9709 45.4036 42.8381 45.7133 42.6966C46.0944 42.529 46.4833 42.3608 46.8644 42.2101C47.4655 41.9711 48.0765 41.7406 48.6867 41.5291C49.0141 41.4224 49.3591 41.3079 49.6957 41.2103C49.9306 41.1243 50.1697 41.0504 50.412 40.989C50.9982 40.8171 51.5915 40.658 52.1848 40.5257Z" fill="black"/>
</g>
</g>
<g style="mix-blend-mode:multiply" opacity="0.08">
<g style="mix-blend-mode:multiply">
<path d="M88.4988 53.8956C88.0093 52.7302 87.4367 51.6013 86.7855 50.5177C86.6338 50.1905 86.4404 49.8844 86.2099 49.607L86.2007 49.5978C85.0624 47.8676 83.723 46.2785 82.2105 44.8637C82.1952 44.8358 82.174 44.8117 82.1483 44.793C76.3528 38.6878 65.7434 30.9098 47.0369 26.0866L62.6902 26.0873C63.0621 26.2018 63.4426 26.3079 63.8145 26.4408C64.0443 26.5122 64.2656 26.5822 64.4778 26.6614C64.487 26.6621 64.4954 26.6791 64.5046 26.6798C64.7352 26.7505 64.9466 26.8304 65.1587 26.9096C65.3708 26.9888 65.6098 27.078 65.8318 27.1756C65.8964 27.1909 65.9587 27.2147 66.0171 27.2463C66.336 27.3615 66.6457 27.4943 66.9681 27.6315C67.1004 27.6845 67.2333 27.7469 67.357 27.8084C67.7997 28.0036 68.2239 28.2071 68.6397 28.4192C68.8277 28.5 69.011 28.5917 69.1884 28.6936C69.3836 28.7912 69.5604 28.8788 69.7456 28.9849C69.9402 29.0734 70.1169 29.1794 70.3028 29.2861C70.7808 29.5506 71.2497 29.8257 71.7101 30.1178C72.1082 30.366 72.5068 30.6219 72.8865 30.8786C72.9756 30.9408 73.064 30.9939 73.1525 31.0555C73.3554 31.2061 73.5675 31.3475 73.7804 31.4981C73.9932 31.6487 74.1962 31.8078 74.3999 31.9577C74.7987 32.2504 75.196 32.56 75.568 32.8698L76.152 33.3479C76.3373 33.4978 76.524 33.666 76.7099 33.8251L76.763 33.8781C77.125 34.1878 77.4709 34.5068 77.7968 34.8243C78.1688 35.1693 78.5173 35.5179 78.8503 35.8778C79.1834 36.2377 79.5227 36.5857 79.8586 36.9569C80.1683 37.2935 80.4605 37.6378 80.761 37.9921C80.7744 38.0236 80.7958 38.0508 80.8231 38.0713C81.1413 38.4602 81.4418 38.8498 81.743 39.2387C82.0443 39.6276 82.3364 40.0357 82.6192 40.443C82.9021 40.8503 83.1765 41.2476 83.4509 41.6634C83.4593 41.6903 83.4599 41.6995 83.4868 41.708C83.7343 42.1152 83.991 42.5218 84.2294 42.9383C84.4069 43.2388 84.5921 43.5401 84.7519 43.8583C84.8749 44.0705 84.9817 44.2833 85.0962 44.4954C85.2108 44.7076 85.3091 44.9119 85.406 45.1148C85.522 45.3269 85.618 45.5306 85.7248 45.7435C85.91 46.1323 86.0877 46.5304 86.2651 46.9285C86.415 47.292 86.5662 47.654 86.7069 48.0083C86.7868 48.2027 86.8576 48.3979 86.9283 48.5832C87.0428 48.849 87.132 49.1233 87.2289 49.3885C87.3088 49.6098 87.3887 49.8396 87.4594 50.0701C87.477 50.1147 87.5033 50.2031 87.5393 50.3269L87.7605 51.1408C88.0165 52.0968 88.3616 53.3795 88.4761 53.7952C88.4816 53.8292 88.4892 53.8626 88.4988 53.8956Z" fill="black"/>
</g>
</g>
<g style="mix-blend-mode:multiply" opacity="0.25">
<g style="mix-blend-mode:multiply">
<path d="M57.475 101.404C57.4658 101.395 57.4658 101.395 57.4566 101.396C56.1614 100.648 54.9119 99.8234 53.7146 98.9268C47.3001 94.1411 42.6017 87.4126 40.3185 79.7422C39.7995 78.016 39.4118 76.2532 39.1588 74.4686C39.1942 74.5662 39.3271 75.0612 39.5661 75.8489C39.8228 76.7335 40.2209 77.99 40.7618 79.4488C41.0539 80.1835 41.3459 80.9705 41.6994 81.7851C41.8677 82.2008 42.0629 82.6166 42.2658 83.0416C42.4688 83.4666 42.6555 83.8908 42.8768 84.3243C43.3018 85.2004 43.7967 86.0673 44.3009 86.9434C44.8051 87.8195 45.363 88.6956 45.9492 89.5378C46.5156 90.3969 47.1265 91.2285 47.7544 92.0247C48.3823 92.8209 49.018 93.5895 49.6742 94.3079C50.3304 95.0264 50.9604 95.7087 51.5947 96.3345C52.229 96.9603 52.8244 97.5288 53.4261 98.0598C54.0279 98.5909 54.5412 99.0505 55.0454 99.467C55.5495 99.8835 55.9752 100.219 56.338 100.511C57.0154 101.041 57.4305 101.36 57.475 101.404Z" fill="black"/>
</g>
</g>
<g style="mix-blend-mode:multiply" opacity="0.25">
<g style="mix-blend-mode:multiply">
<path d="M101.736 65.1068C99.8719 70.6503 96.7299 75.6778 92.5643 79.7834C88.3988 83.8889 83.3263 86.9576 77.7563 88.7418C76.8095 89.0423 75.8542 89.3075 74.8805 89.5288C75.005 89.4666 75.5353 89.2544 76.3767 88.9362C76.8456 88.7418 77.4912 88.5558 78.1014 88.2638C78.7562 87.9541 79.5481 87.6656 80.3139 87.2632C80.7035 87.0688 81.1101 86.8658 81.5351 86.6615C81.9509 86.4324 82.3758 86.1927 82.8178 85.9544C83.2734 85.7181 83.7164 85.4582 84.145 85.1759C84.5884 84.8923 85.0572 84.6356 85.5083 84.3259C85.9595 84.0162 86.4191 83.7065 86.8801 83.3883C87.3411 83.0701 87.7739 82.7066 88.2335 82.3701C88.6931 82.0335 89.1358 81.663 89.5784 81.291C90.0211 80.9191 90.4722 80.557 90.8788 80.1406C91.3038 79.7424 91.7464 79.3705 92.1537 78.9632C92.561 78.5559 92.9584 78.1317 93.3565 77.7251C94.1004 76.8582 94.8874 76.0528 95.5429 75.1767C96.2415 74.3451 96.8348 73.469 97.4365 72.6636C97.7109 72.2478 97.976 71.8313 98.2327 71.4431C98.4978 71.07 98.7431 70.6831 98.9674 70.2842C99.41 69.5233 99.835 68.8325 100.162 68.1954C100.49 67.5583 100.816 67.011 101.021 66.5323C101.391 65.7615 101.656 65.2581 101.736 65.1068Z" fill="black"/>
</g>
</g>
<g style="mix-blend-mode:multiply" opacity="0.25">
<g style="mix-blend-mode:multiply">
<path d="M47.9719 41.7816L46.1688 42.8069C45.5586 43.1343 44.9738 43.5056 44.3805 43.8598C43.7873 44.2141 43.2131 44.5945 42.6382 44.9573L42.4162 45.0987L42.2309 45.2316L41.7975 45.5321L41.3725 45.8326L41.1604 45.984L41.0628 46.0547C41.0716 46.048 41.0781 46.0385 41.0812 46.0278L40.9921 46.107L38.9747 47.6563L38.4705 48.036L38.3376 48.1251L38.2937 48.1604L38.2845 48.1597V48.1696L38.2761 48.1781L38.2485 48.1958L38.0371 48.3818L37.0902 49.231C36.7713 49.5146 36.4616 49.7974 36.1342 50.0626L35.6562 50.4783L35.2405 50.8771L34.3651 51.7441C34.0808 52.0538 33.7803 52.3543 33.489 52.6555L33.2676 52.8853L33.2146 52.9384L33.2054 52.9391L33.1969 52.956L33.1792 52.9652L33.0809 53.089L32.6567 53.567L32.2402 54.0358L32.0465 54.2479L31.8428 54.4869L31.0197 55.4599L30.2582 56.4336L29.8601 56.9293L29.4889 57.425C29.2414 57.7078 29.0024 58.1066 28.7626 58.4425C28.2861 59.1326 27.7897 59.8228 27.2777 60.4931C27.5075 60.0158 27.7458 59.547 28.0032 59.086C28.1531 58.8031 28.3129 58.5203 28.4635 58.2367C28.7817 57.7064 29.0922 57.1838 29.4273 56.6705C29.7462 56.1748 30.0644 55.6883 30.4095 55.2018C30.7546 54.7153 31.118 54.2458 31.4808 53.777C31.8435 53.3082 32.2239 52.857 32.6044 52.4144C32.9848 51.9717 33.3829 51.5298 33.7987 51.0956C34.2144 50.6615 34.6224 50.2464 35.0552 49.8391C35.9044 49.0252 36.7989 48.2467 37.7273 47.512C38.6395 46.7865 39.5842 46.1162 40.5593 45.4763C40.5848 45.4599 40.6115 45.4454 40.6392 45.4331C41.125 45.1142 41.6299 44.813 42.1241 44.5139C42.1531 44.5045 42.18 44.4896 42.2033 44.4701L42.9203 44.0712C43.5398 43.7347 44.1592 43.4165 44.7949 43.1174C45.0954 42.9667 45.4051 42.8338 45.7148 42.6924C46.096 42.5248 46.4849 42.3565 46.866 42.2059C47.2287 42.0652 47.6007 41.9238 47.9719 41.7816Z" fill="black"/>
</g>
</g>
<g style="mix-blend-mode:multiply" opacity="0.25">
<g style="mix-blend-mode:multiply">
<path d="M86.7018 48.01C86.4013 47.4874 86.1178 46.9833 85.8081 46.47L85.5783 46.0902C85.4984 45.9481 85.4454 45.8512 85.357 45.7176L84.8881 44.9659L84.4194 44.2313L83.9237 43.4881L83.0214 42.17L83.003 42.1517C82.9689 42.1175 82.9393 42.0793 82.9146 42.0377C82.9139 42.0309 82.911 42.0244 82.9061 42.0194L82.9062 42.0109L82.2422 41.1518C82.1276 41.0019 82.03 40.8604 81.9055 40.719L81.5605 40.2849L81.2162 39.843L81.0655 39.6569L80.888 39.4356L80.2339 38.6571L80.2163 38.6395C80.2006 38.6194 80.1826 38.6014 80.1626 38.5857C80.1364 38.5596 80.1188 38.5334 80.0827 38.4889C79.7737 38.1615 79.4816 37.817 79.1896 37.4982L78.2159 36.4806L77.1899 35.4716L76.1724 34.5248L76.1454 34.4979L76.1455 34.4895L76.137 34.4895C75.8796 34.2589 75.623 34.0291 75.3493 33.7993L74.9512 33.4804L74.5439 33.1438L73.73 32.4714L73.3136 32.144L72.9069 31.8349C72.7563 31.7281 72.6411 31.6398 72.4827 31.5337L72.0746 31.2416L71.642 30.932L71.4291 30.7729C71.3974 30.7556 71.3679 30.735 71.3407 30.7114L71.2254 30.6399L70.3408 30.0466L69.4831 29.4901L69.4563 29.4817C69.1826 29.3042 68.9083 29.1275 68.6071 28.9592L67.7218 28.4373L66.8379 27.924L65.9314 27.4417L65.9044 27.4233L65.7715 27.3526L65.7546 27.3441C65.3473 27.132 64.9223 26.8923 64.4981 26.6802C64.7286 26.7509 64.94 26.8308 65.1521 26.91C65.3643 26.9892 65.6033 27.0783 65.8253 27.1758C65.8898 27.1913 65.9521 27.2151 66.0106 27.2466C66.3295 27.3618 66.6391 27.4947 66.9615 27.6319C67.0938 27.6849 67.2268 27.7472 67.3505 27.8087C67.7932 28.0039 68.2174 28.2074 68.6331 28.4196C68.8212 28.5004 69.0044 28.592 69.1819 28.6939C69.377 28.7915 69.5539 28.8793 69.7391 28.9853C69.9336 29.0737 70.1103 29.1797 70.2963 29.2865C70.7743 29.551 71.2431 29.8261 71.7035 30.1181C72.1016 30.3663 72.5004 30.6223 72.8801 30.879C72.9692 30.9412 73.0576 30.9942 73.146 31.0557C73.3489 31.2064 73.561 31.3477 73.7738 31.4983C73.9867 31.6489 74.1896 31.808 74.3932 31.9579C74.792 32.2507 75.1895 32.5605 75.5614 32.8702L76.1454 33.3481C76.3307 33.498 76.5175 33.6664 76.7034 33.8255L76.7565 33.8785C77.1185 34.1882 77.4642 34.5071 77.7902 34.8246C78.1621 35.1696 78.5108 35.5183 78.8438 35.8782C79.1769 36.2381 79.5162 36.586 79.8521 36.9572C80.1618 37.2938 80.4538 37.6381 80.7544 37.9924C80.7677 38.0239 80.7892 38.0512 80.8167 38.0717C81.1349 38.4606 81.4353 38.8501 81.7365 39.239C82.0378 39.6279 82.3299 40.036 82.6127 40.4433C82.8956 40.8506 83.1698 41.2479 83.4442 41.6637C83.4527 41.6906 83.4535 41.6998 83.4803 41.7083C83.7278 42.1156 83.9845 42.5222 84.2228 42.9387C84.4003 43.2392 84.5855 43.5404 84.7453 43.8585C84.8683 44.0707 84.9751 44.2835 85.0896 44.4957C85.2042 44.7078 85.3026 44.9122 85.3994 45.1151C85.5154 45.3273 85.6116 45.5309 85.7183 45.7438C85.9036 46.1327 86.0811 46.5308 86.2586 46.9289C86.4106 47.2945 86.5611 47.6571 86.7018 48.01Z" fill="black"/>
</g>
</g>
<g style="mix-blend-mode:screen" opacity="0.4">
<g style="mix-blend-mode:screen">
<path d="M38.2466 48.1968C38.2558 48.1791 38.2742 48.1791 38.2735 48.1699L38.2742 48.1791L38.2466 48.1968Z" fill="white"/>
</g>
</g>
<g style="mix-blend-mode:screen" opacity="0.4">
<g style="mix-blend-mode:screen">
<path d="M79.9512 38.1977L80.128 38.5343L80.0835 38.4898C80.0226 38.401 79.9778 38.3021 79.9512 38.1977Z" fill="white"/>
</g>
</g>
<g style="mix-blend-mode:screen" opacity="0.4">
<g style="mix-blend-mode:screen">
<path d="M82.8355 41.8695L82.8715 41.9579C82.857 41.9296 82.8449 41.8999 82.8355 41.8695Z" fill="white"/>
</g>
</g>
<g style="mix-blend-mode:screen" opacity="0.4">
<g style="mix-blend-mode:screen">
<path d="M82.9249 42.0383L83.2785 42.3212C83.2315 42.3074 83.1869 42.2867 83.1462 42.2596C83.1004 42.2373 83.0585 42.2075 83.0225 42.1712L83.0041 42.1529L82.9249 42.0383Z" fill="white"/>
</g>
</g>
<path d="M56.2017 77V47.9091H63.233V71.2898H75.3352V77H56.2017Z" fill="#49A09D"/>
<path d="M56.2017 77H55.2017V78H56.2017V77ZM56.2017 47.9091V46.9091H55.2017V47.9091H56.2017ZM63.233 47.9091H64.233V46.9091H63.233V47.9091ZM63.233 71.2898H62.233V72.2898H63.233V71.2898ZM75.3352 71.2898H76.3352V70.2898H75.3352V71.2898ZM75.3352 77V78H76.3352V77H75.3352ZM57.2017 77V47.9091H55.2017V77H57.2017ZM56.2017 48.9091H63.233V46.9091H56.2017V48.9091ZM62.233 47.9091V71.2898H64.233V47.9091H62.233ZM63.233 72.2898H75.3352V70.2898H63.233V72.2898ZM74.3352 71.2898V77H76.3352V71.2898H74.3352ZM75.3352 76H56.2017V78H75.3352V76Z" fill="black"/>
<defs>
<linearGradient id="paint0_linear_6_71" x1="54.0036" y1="450.137" x2="93.8505" y2="410.291" gradientUnits="userSpaceOnUse">
<stop stop-color="#00F3FF"/>
<stop offset="0.238" stop-color="#00EFFC"/>
<stop offset="0.44" stop-color="#00E5F4"/>
<stop offset="0.629" stop-color="#00D3E7"/>
<stop offset="0.81" stop-color="#00BAD4"/>
<stop offset="0.983" stop-color="#009BBC"/>
<stop offset="1" stop-color="#0098BA"/>
</linearGradient>
<linearGradient id="paint1_linear_6_71" x1="29.595" y1="415.938" x2="71.4508" y2="457.794" gradientUnits="userSpaceOnUse">
<stop stop-color="#49A09D"/>
<stop offset="0.149" stop-color="#4A989B"/>
<stop offset="0.375" stop-color="#4E8396"/>
<stop offset="0.65" stop-color="#54618E"/>
<stop offset="0.96" stop-color="#5D3283"/>
<stop offset="1" stop-color="#5F2C82"/>
</linearGradient>
<linearGradient id="paint2_linear_6_71" x1="57.7223" y1="389.946" x2="17.6442" y2="430.024" gradientUnits="userSpaceOnUse">
<stop stop-color="#3E6896"/>
<stop offset="0.247" stop-color="#355881"/>
<stop offset="0.75" stop-color="#1F324E"/>
<stop offset="1" stop-color="#131D32"/>
</linearGradient>
<linearGradient id="paint3_linear_6_71" x1="89.2267" y1="421.427" x2="48.3001" y2="380.5" gradientUnits="userSpaceOnUse">
<stop stop-color="#233B55"/>
<stop offset="1" stop-color="#131D32"/>
</linearGradient>
</defs>
</svg>
