<svg width="170" height="170" viewBox="0 0 170 170" fill="none" xmlns="http://www.w3.org/2000/svg">
<rect width="170" height="170" rx="25" fill="#8FB3CD"/>
<rect x="12" y="12" width="146" height="146" rx="14" fill="#000203"/>
<path d="M122.884 67.725L122.883 84.3696C122.751 84.8385 122.6 85.3073 122.446 85.7711C122.44 85.7786 122.437 85.7883 122.437 85.798C122.437 85.8065 122.437 85.8065 122.428 85.8157C120.564 91.3593 117.422 96.3867 113.256 100.492C109.091 104.598 104.018 107.667 98.4481 109.451C97.5013 109.751 96.546 110.016 95.5723 110.238C95.5613 110.242 95.5496 110.245 95.5376 110.247C92.7889 110.877 89.9778 111.195 87.1577 111.194H86.7773C91.317 110.857 95.6926 109.353 99.4799 106.827C103.267 104.302 106.338 100.841 108.394 96.7794L108.394 96.7709C110.128 93.3555 111.098 89.6034 111.235 85.7754C111.373 81.9475 110.675 78.1355 109.19 74.6045C108.996 73.693 108.766 72.7901 108.498 71.9026C108.391 71.5314 108.264 71.1468 108.144 70.7791C108.073 70.5485 107.993 70.3187 107.913 70.0974C107.817 69.8322 107.727 69.5579 107.613 69.292C107.542 69.1067 107.471 68.9116 107.392 68.7171C107.25 68.3636 107.1 68.0008 106.95 67.6374C106.772 67.2393 106.605 66.8412 106.409 66.4523C106.303 66.2394 106.206 66.0358 106.091 65.8237C106.003 65.62 105.888 65.4072 105.781 65.2042C105.674 65.0013 105.559 64.7793 105.436 64.5671C105.277 64.2489 105.091 63.9477 104.914 63.6472C104.676 63.2307 104.419 62.8241 104.171 62.4168C104.145 62.4083 104.144 62.3991 104.135 62.3723C103.869 61.9565 103.595 61.5407 103.304 61.1518C103.029 60.7445 102.737 60.3379 102.428 59.9476C102.118 59.5573 101.834 59.1606 101.508 58.7802C101.48 58.7597 101.459 58.7324 101.446 58.701C101.154 58.3474 100.862 58.0016 100.543 57.6658C100.216 57.2945 99.8885 56.9403 99.5349 56.5867C99.1983 56.2233 98.8533 55.8782 98.4813 55.5331C98.1547 55.2149 97.8089 54.896 97.4475 54.587L97.3952 54.5347C97.2092 54.3756 97.0226 54.2073 96.8373 54.0574C96.6429 53.8884 96.4477 53.73 96.2532 53.5794C95.8813 53.2697 95.4839 52.96 95.0851 52.6672C94.8815 52.5088 94.6778 52.349 94.4657 52.2076C94.2535 52.0662 94.0407 51.9156 93.8378 51.765C93.7494 51.7034 93.661 51.6504 93.5719 51.5882C93.1922 51.3315 92.7934 51.0755 92.3953 50.8273C91.9349 50.5353 91.4661 50.2602 90.9881 49.9958C90.8022 49.889 90.6254 49.7829 90.4309 49.6945C90.245 49.5878 90.0682 49.5001 89.8737 49.4032C89.6963 49.3012 89.5131 49.2096 89.325 49.1289C88.9092 48.9167 88.4765 48.7131 88.0423 48.5179C87.9186 48.4564 87.7856 48.3942 87.6534 48.3411C87.3437 48.1997 87.0248 48.0845 86.7023 47.9558C86.6439 47.9242 86.5817 47.9005 86.5171 47.8851C86.2958 47.7868 86.0744 47.6984 85.8439 47.6192C85.6134 47.54 85.4204 47.4601 85.1898 47.3894L85.1785 47.3767L85.1693 47.3675C84.9572 47.2883 84.7366 47.2176 84.5061 47.1468C84.1341 47.0139 83.7544 46.9085 83.3818 46.7933L101.938 46.7933C104.689 46.7893 107.413 47.328 109.956 48.3786C112.498 49.4292 114.808 50.9709 116.754 52.9157C118.699 54.8603 120.242 57.1697 121.294 59.7116C122.346 62.2534 122.886 64.9778 122.883 67.7286L122.884 67.725Z" fill="url(#paint0_linear_6_74)"/>
<path d="M122.881 84.3716L122.881 101.945C122.886 104.697 122.347 107.423 121.296 109.966C120.245 112.509 118.702 114.82 116.756 116.766C114.811 118.711 112.5 120.254 109.957 121.305C107.414 122.356 104.688 122.895 101.936 122.89L79.6022 122.89C79.1242 122.642 78.6469 122.386 78.1774 122.111L78.1689 122.111C78.1597 122.102 78.1597 122.102 78.1505 122.103C76.8553 121.355 75.6057 120.53 74.4085 119.634C67.994 114.848 63.2956 108.119 61.0124 100.449C60.4934 98.7229 60.1057 96.96 59.8527 95.1754L59.8527 95.1571C59.7283 94.317 59.6307 93.4586 59.5699 92.6002C61.231 98.0036 64.5811 102.732 69.128 106.091C73.6748 109.45 79.1789 111.262 84.832 111.262C85.4967 111.262 86.1422 111.244 86.7793 111.191L87.1598 111.191C89.9799 111.192 92.791 110.875 95.5397 110.245C95.5516 110.243 95.5632 110.24 95.5743 110.235C96.548 110.014 97.5033 109.749 98.4501 109.448C104.02 107.664 109.093 104.596 113.258 100.49C117.424 96.3844 120.566 91.3569 122.43 85.8133C122.439 85.8042 122.439 85.8042 122.439 85.7957C122.439 85.7859 122.442 85.7762 122.448 85.7688C122.6 85.3071 122.751 84.8382 122.881 84.3716Z" fill="url(#paint1_linear_6_74)"/>
<path d="M79.6044 122.888H67.725C62.1703 122.888 56.843 120.681 52.9152 116.753C48.9873 112.825 46.7806 107.498 46.7805 101.943V83.9092C47.1341 82.9984 47.5237 82.0954 47.9486 81.2193L47.9663 81.2017C48.1961 80.7244 48.4344 80.2556 48.6918 79.7945C48.8417 79.5117 49.0015 79.2288 49.1521 78.9453C49.4703 78.415 49.7808 77.8924 50.1159 77.3791C50.4348 76.8834 50.753 76.3969 51.0981 75.9104C51.4432 75.4239 51.8066 74.9544 52.1694 74.4856C52.5321 74.0168 52.9125 73.5656 53.293 73.123C53.6734 72.6803 54.0715 72.2384 54.4873 71.8042C54.903 71.3701 55.311 70.955 55.7438 70.5477C56.593 69.7338 57.4875 68.9553 58.4159 68.2206C59.3281 67.4951 60.2728 66.8248 61.2479 66.1848C61.2734 66.1684 61.3001 66.154 61.3278 66.1417C61.8136 65.8228 62.3185 65.5216 62.8127 65.2225C62.8417 65.213 62.8686 65.1981 62.8919 65.1786L63.6089 64.7798C64.2284 64.4432 64.8478 64.125 65.4835 63.8259C65.784 63.6753 66.0937 63.5424 66.4034 63.401C66.7846 63.2334 67.1735 63.0651 67.5546 62.9145C67.9166 62.7731 68.2886 62.6316 68.6598 62.4895L68.6782 62.481C68.908 62.4011 69.1463 62.3127 69.3768 62.2335C69.7042 62.1268 70.0493 62.0122 70.3859 61.9146C70.6208 61.8286 70.8598 61.7547 71.1022 61.6933C71.6862 61.525 72.2788 61.3652 72.872 61.233C72.8328 61.2677 72.7914 61.3 72.7483 61.3298C69.953 62.775 67.4363 64.7047 65.3152 67.0291C62.2172 70.4245 60.0575 74.5685 59.049 79.0528C58.0405 83.5372 58.2182 88.2069 59.5643 92.6016C59.6251 93.4601 59.7241 94.3171 59.8471 95.1585V95.1769C60.1001 96.9615 60.4878 98.7244 61.0068 100.451C63.29 108.121 67.9884 114.849 74.4029 119.635C75.6001 120.532 76.8497 121.356 78.1449 122.104C78.1541 122.104 78.1541 122.104 78.1633 122.113H78.1718C78.6491 122.384 79.1257 122.641 79.6044 122.888Z" fill="url(#paint2_linear_6_74)"/>
<path d="M109.167 74.5032C108.982 73.6278 108.76 72.7517 108.504 71.9017C108.424 71.6182 108.328 71.3177 108.23 71.0348C108.194 70.9111 108.168 70.8227 108.15 70.7781C108.079 70.5476 107.999 70.3178 107.92 70.0965C107.823 69.8313 107.734 69.557 107.619 69.2911C107.548 69.1058 107.478 68.9107 107.398 68.7162C107.256 68.3627 107.106 67.9999 106.956 67.6365C106.778 67.2384 106.601 66.8403 106.416 66.4514C106.309 66.2385 106.213 66.0349 106.097 65.8227C106 65.6198 105.894 65.4062 105.787 65.2033C105.68 65.0004 105.566 64.7783 105.443 64.5662C105.283 64.248 105.098 63.9468 104.92 63.6463C104.682 63.2298 104.425 62.8232 104.178 62.4159C104.151 62.4074 104.15 62.3982 104.142 62.3713C103.867 61.9556 103.593 61.5483 103.31 61.1509C103.027 60.7535 102.735 60.3455 102.434 59.9467C102.133 59.5479 101.832 59.1681 101.514 58.7792C101.487 58.7588 101.465 58.7314 101.452 58.7C101.151 58.3458 100.859 58.0014 100.549 57.6648C100.214 57.2936 99.8861 56.9393 99.5411 56.5858C99.196 56.2322 98.8594 55.8773 98.4875 55.5322C98.1608 55.214 97.815 54.8951 97.4537 54.5861L97.3985 54.5309C97.2126 54.3718 97.0259 54.2036 96.8406 54.0536L96.2566 53.5756C95.8846 53.2659 95.4872 52.9562 95.0884 52.6635C94.8848 52.5136 94.6726 52.3637 94.469 52.2039C94.2654 52.0441 94.044 51.9118 93.8411 51.7612C93.7527 51.6997 93.6643 51.6467 93.5752 51.5844C93.1955 51.3278 92.7967 51.0718 92.3986 50.8236C91.9383 50.5315 91.4695 50.2565 90.9914 49.992C90.8055 49.8853 90.6287 49.7792 90.4342 49.6908C90.2483 49.584 90.0715 49.4963 89.8771 49.3995C89.6996 49.2976 89.5164 49.2059 89.3283 49.1251C88.9126 48.913 88.4883 48.7093 88.0456 48.5142C87.9219 48.4527 87.789 48.3904 87.6567 48.3374C87.3378 48.1967 87.0281 48.0637 86.7057 47.952C86.6473 47.9206 86.585 47.8968 86.5204 47.8813C86.2991 47.783 86.0778 47.6946 85.8472 47.6154C85.6167 47.5362 85.4237 47.4563 85.1932 47.3856L85.1783 47.3764L85.1691 47.3672C84.957 47.288 84.7364 47.2173 84.5059 47.1466C84.1339 47.0137 83.7542 46.9083 83.3816 46.7931L67.7284 46.7924L67.7199 46.7924C64.9704 46.7919 62.2477 47.333 59.7074 48.385C57.1671 49.4369 54.8589 50.979 52.9147 52.9232C50.9705 54.8674 49.4284 57.1756 48.3764 59.7159C47.3245 62.2562 46.7833 64.9789 46.7839 67.7284L46.7838 83.9126C47.1466 82.9842 47.5447 82.0728 47.9789 81.1875C48.4823 80.1438 49.0395 79.1368 49.6335 78.1526C49.7834 77.8952 49.9517 77.6392 50.12 77.3832C50.4389 76.8875 50.7571 76.4011 51.1021 75.9146C51.4472 75.4281 51.7923 74.9586 52.1734 74.4897C52.527 74.0301 52.8989 73.5691 53.297 73.1271C53.6951 72.6852 54.0762 72.2334 54.4913 71.8084C54.8894 71.3749 55.3144 70.95 55.7478 70.5519C56.5971 69.738 57.4909 68.9503 58.42 68.2248C59.3259 67.5043 60.2682 66.8309 61.2435 66.2074C61.2705 66.1837 61.3002 66.1631 61.3319 66.1459C61.8007 65.8355 62.2695 65.5434 62.756 65.2606C64.3021 64.3696 65.9077 63.5862 67.5615 62.9158C67.9235 62.7744 68.2954 62.633 68.6667 62.4908L68.6851 62.4824C68.9149 62.4025 69.1532 62.3141 69.3837 62.2349C69.4234 62.2272 69.462 62.2151 69.4989 62.1988C69.8002 62.0927 70.1007 62.0044 70.3927 61.916C70.6276 61.8301 70.8666 61.7562 71.109 61.6946C71.6931 61.5264 72.2856 61.3665 72.8789 61.2343C72.8351 61.2612 72.7997 61.305 72.7552 61.3312C72.8527 61.2789 72.9404 61.2435 73.0295 61.1898L73.0557 61.1905C76.7093 59.3534 80.7438 58.4014 84.8333 58.4115C91.5176 58.4038 97.9548 60.9377 102.84 65.4996C102.866 65.5183 102.887 65.5424 102.903 65.5703C104.415 66.9851 105.755 68.5742 106.893 70.3044L106.902 70.3136C107.097 70.6141 107.291 70.9146 107.478 71.2243C108.129 72.3079 108.702 73.4367 109.191 74.6022C109.181 74.5697 109.173 74.5366 109.167 74.5032Z" fill="url(#paint3_linear_6_74)"/>
<g style="mix-blend-mode:multiply" opacity="0.08">
<g style="mix-blend-mode:multiply">
<path d="M122.881 68.5324L122.881 84.3716C120.642 92.1123 115.947 98.915 109.503 103.753C103.059 108.591 95.2169 111.202 87.1591 111.192L86.7787 111.192C91.3183 110.855 95.6939 109.351 99.4812 106.826C103.269 104.3 106.339 100.839 108.396 96.7777C108.405 96.7686 108.396 96.7693 108.396 96.7693C113.884 90.4746 119.149 81.4583 122.881 68.5324Z" fill="black"/>
</g>
</g>
<g style="mix-blend-mode:multiply" opacity="0.08">
<g style="mix-blend-mode:multiply">
<path d="M89.9125 122.888L79.6043 122.888C73.9545 119.972 69.1464 115.657 65.6392 110.355C62.1321 105.052 60.0429 98.9389 59.5712 92.5988C60.9233 97.0027 63.4065 100.975 66.7731 104.12C72.6575 112.343 80.6515 118.827 89.9125 122.888Z" fill="black"/>
</g>
</g>
<g style="mix-blend-mode:multiply" opacity="0.08">
<g style="mix-blend-mode:multiply">
<path d="M72.8797 61.2309C72.8404 61.2656 72.799 61.298 72.7559 61.3278C69.9606 62.7729 67.4439 64.7026 65.3228 67.0271C59.7841 71.8318 52.8904 79.5386 46.7846 91.4667L46.7852 83.91C47.3302 82.4974 47.9687 81.1228 48.6966 79.7953C48.8465 79.5125 49.0063 79.2296 49.1569 78.9461C49.4751 78.4157 49.7855 77.8932 50.1207 77.3798C50.4396 76.8842 50.7578 76.3977 51.1028 75.9112C51.4479 75.4247 51.8114 74.9552 52.1741 74.4864C52.5369 74.0175 52.9174 73.5663 53.2978 73.1237C53.6782 72.681 54.0762 72.2392 54.492 71.805C54.9078 71.3708 55.3158 70.9558 55.7485 70.5485C56.5978 69.7346 57.4923 68.9561 58.4207 68.2214C59.3329 67.4959 60.2776 66.8256 61.2527 66.1856C61.2782 66.1691 61.3049 66.1547 61.3326 66.1424C61.8184 65.8235 62.3232 65.5224 62.8175 65.2233C62.8465 65.2138 62.8733 65.1989 62.8967 65.1793L63.6138 64.7805C64.2332 64.4439 64.8526 64.1258 65.4883 63.8266C65.7888 63.676 66.0985 63.5432 66.4082 63.4017C66.7893 63.2342 67.1782 63.0659 67.5593 62.9153C68.1604 62.6763 68.7714 62.4457 69.3816 62.2342C69.709 62.1275 70.054 62.013 70.3906 61.9154C70.6255 61.8294 70.8646 61.7555 71.1069 61.6941C71.6931 61.5223 72.2864 61.3631 72.8797 61.2309Z" fill="black"/>
</g>
</g>
<g style="mix-blend-mode:multiply" opacity="0.08">
<g style="mix-blend-mode:multiply">
<path d="M109.194 74.6007C108.704 73.4353 108.132 72.3064 107.48 71.2228C107.329 70.8957 107.135 70.5895 106.905 70.3121L106.896 70.3029C105.757 68.5727 104.418 66.9836 102.905 65.5688C102.89 65.5409 102.869 65.5168 102.843 65.4981C97.0477 59.3929 86.4383 51.6149 67.7318 46.7917L83.3851 46.7924C83.757 46.9069 84.1375 47.013 84.5094 47.1459C84.7392 47.2173 84.9605 47.2873 85.1727 47.3665C85.1819 47.3672 85.1903 47.3842 85.1995 47.3849C85.43 47.4556 85.6415 47.5355 85.8536 47.6147C86.0657 47.6939 86.3047 47.7831 86.5267 47.8807C86.5913 47.896 86.6536 47.9198 86.712 47.9514C87.0309 48.0666 87.3406 48.1994 87.663 48.3366C87.7952 48.3897 87.9282 48.452 88.0519 48.5135C88.4946 48.7087 88.9188 48.9122 89.3346 49.1243C89.5226 49.2052 89.7059 49.2968 89.8833 49.3987C90.0785 49.4963 90.2553 49.584 90.4405 49.69C90.6351 49.7785 90.8118 49.8845 90.9977 49.9912C91.4757 50.2557 91.9446 50.5308 92.4049 50.8229C92.803 51.0711 93.2017 51.327 93.5814 51.5837C93.6705 51.6459 93.7589 51.699 93.8474 51.7606C94.0503 51.9112 94.2624 52.0526 94.4753 52.2032C94.6881 52.3538 94.8911 52.5129 95.0948 52.6628C95.4936 52.9555 95.8909 53.2652 96.2628 53.5749L96.8469 54.053C97.0322 54.2029 97.2189 54.3711 97.4048 54.5302L97.4579 54.5832C97.8199 54.8929 98.1657 55.2119 98.4917 55.5294C98.8637 55.8744 99.2122 56.223 99.5452 56.5829C99.8783 56.9428 100.218 57.2908 100.554 57.662C100.863 57.9986 101.155 58.343 101.456 58.6972C101.469 58.7287 101.491 58.7559 101.518 58.7764C101.836 59.1653 102.137 59.5549 102.438 59.9438C102.739 60.3328 103.031 60.7408 103.314 61.1481C103.597 61.5554 103.871 61.9527 104.146 62.3685C104.154 62.3954 104.155 62.4046 104.182 62.4131C104.429 62.8204 104.686 63.2269 104.924 63.6434C105.102 63.9439 105.287 64.2452 105.447 64.5634C105.57 64.7756 105.677 64.9884 105.791 65.2006C105.906 65.4127 106.004 65.617 106.101 65.8199C106.217 66.032 106.313 66.2357 106.42 66.4486C106.605 66.8374 106.783 67.2355 106.96 67.6336C107.11 67.9971 107.261 68.3591 107.402 68.7134C107.482 68.9078 107.552 69.103 107.623 69.2883C107.738 69.5541 107.827 69.8284 107.924 70.0936C108.004 70.3149 108.084 70.5447 108.154 70.7752C108.172 70.8198 108.198 70.9082 108.234 71.032L108.455 71.8459C108.711 72.8019 109.056 74.0846 109.171 74.5003C109.177 74.5343 109.184 74.5677 109.194 74.6007Z" fill="black"/>
</g>
</g>
<g style="mix-blend-mode:multiply" opacity="0.25">
<g style="mix-blend-mode:multiply">
<path d="M78.1699 122.11C78.1607 122.1 78.1607 122.1 78.1515 122.101C76.8563 121.353 75.6068 120.528 74.4095 119.632C67.995 114.846 63.2966 108.118 61.0134 100.447C60.4944 98.7212 60.1067 96.9583 59.8537 95.1737C59.8891 95.2713 60.022 95.7663 60.261 96.554C60.5177 97.4386 60.9158 98.6951 61.4567 100.154C61.7488 100.889 62.0408 101.676 62.3944 102.49C62.5626 102.906 62.7578 103.322 62.9607 103.747C63.1637 104.172 63.3504 104.596 63.5717 105.029C63.9967 105.906 64.4916 106.772 64.9958 107.649C65.5 108.525 66.0579 109.401 66.6441 110.243C67.2105 111.102 67.8214 111.934 68.4493 112.73C69.0772 113.526 69.7129 114.295 70.3691 115.013C71.0253 115.731 71.6553 116.414 72.2896 117.04C72.9239 117.665 73.5193 118.234 74.121 118.765C74.7228 119.296 75.2361 119.756 75.7403 120.172C76.2444 120.589 76.6701 120.924 77.0329 121.216C77.7103 121.746 78.1254 122.065 78.1699 122.11Z" fill="black"/>
</g>
</g>
<g style="mix-blend-mode:multiply" opacity="0.25">
<g style="mix-blend-mode:multiply">
<path d="M122.431 85.8119C120.567 91.3554 117.425 96.3829 113.259 100.489C109.094 104.594 104.021 107.663 98.4512 109.447C97.5044 109.747 96.5491 110.013 95.5754 110.234C95.6999 110.172 96.2302 109.96 97.0716 109.641C97.5405 109.447 98.186 109.261 98.7963 108.969C99.4511 108.659 100.243 108.371 101.009 107.968C101.398 107.774 101.805 107.571 102.23 107.367C102.646 107.137 103.071 106.898 103.513 106.659C103.968 106.423 104.411 106.163 104.84 105.881C105.283 105.597 105.752 105.341 106.203 105.031C106.654 104.721 107.114 104.412 107.575 104.093C108.036 103.775 108.469 103.412 108.928 103.075C109.388 102.739 109.831 102.368 110.273 101.996C110.716 101.624 111.167 101.262 111.574 100.846C111.999 100.448 112.441 100.076 112.849 99.6683C113.256 99.261 113.653 98.8368 114.051 98.4302C114.795 97.5633 115.582 96.7579 116.238 95.8818C116.936 95.0502 117.53 94.1741 118.131 93.3687C118.406 92.9529 118.671 92.5364 118.928 92.1482C119.193 91.7751 119.438 91.3883 119.662 90.9893C120.105 90.2285 120.53 89.5376 120.857 88.9005C121.185 88.2634 121.511 87.7161 121.716 87.2374C122.086 86.4666 122.351 85.9632 122.431 85.8119Z" fill="black"/>
</g>
</g>
<g style="mix-blend-mode:multiply" opacity="0.25">
<g style="mix-blend-mode:multiply">
<path d="M68.6668 62.4867L66.8637 63.512C66.2534 63.8394 65.6687 64.2107 65.0754 64.5649C64.4821 64.9192 63.908 65.2996 63.3331 65.6624L63.1111 65.8038L62.9258 65.9367L62.4923 66.2372L62.0674 66.5378L61.8552 66.6891L61.7577 66.7598C61.7665 66.7531 61.773 66.7436 61.776 66.7329L61.687 66.8121L59.6696 68.3614L59.1654 68.7411L59.0325 68.8302L58.9886 68.8656L58.9794 68.8648V68.8747L58.971 68.8832L58.9434 68.9009L58.732 69.0869L57.7851 69.9361C57.4662 70.2197 57.1565 70.5025 56.8291 70.7677L56.3511 71.1834L55.9353 71.5823L55.0599 72.4492C54.7757 72.7589 54.4752 73.0594 54.1838 73.3606L53.9625 73.5904L53.9095 73.6435L53.9003 73.6442L53.8918 73.6612L53.8741 73.6703L53.7758 73.7941L53.3516 74.2721L52.9351 74.7409L52.7413 74.953L52.5377 75.192L51.7146 76.165L50.9531 77.1387L50.555 77.6344L50.1837 78.1301C49.9363 78.4129 49.6973 78.8117 49.4575 79.1476C48.981 79.8377 48.4846 80.5279 47.9726 81.1982C48.2024 80.7209 48.4407 80.2521 48.6981 79.7911C48.848 79.5082 49.0078 79.2254 49.1584 78.9418C49.4766 78.4115 49.7871 77.8889 50.1222 77.3756C50.4411 76.8799 50.7593 76.3934 51.1044 75.9069C51.4495 75.4204 51.8129 74.9509 52.1757 74.4821C52.5384 74.0133 52.9188 73.5622 53.2993 73.1195C53.6797 72.6769 54.0778 72.2349 54.4936 71.8008C54.9093 71.3666 55.3173 70.9515 55.7501 70.5442C56.5993 69.7303 57.4938 68.9518 58.4222 68.2171C59.3344 67.4916 60.2791 66.8213 61.2542 66.1814C61.2797 66.165 61.3064 66.1505 61.3341 66.1382C61.8199 65.8193 62.3248 65.5181 62.819 65.219C62.848 65.2096 62.8749 65.1947 62.8982 65.1752L63.6152 64.7764C64.2347 64.4398 64.8541 64.1216 65.4898 63.8225C65.7903 63.6719 66.1 63.5389 66.4097 63.3975C66.7908 63.2299 67.1798 63.0616 67.5609 62.911C67.9236 62.7703 68.2956 62.6289 68.6668 62.4867Z" fill="black"/>
</g>
</g>
<g style="mix-blend-mode:multiply" opacity="0.25">
<g style="mix-blend-mode:multiply">
<path d="M107.397 68.7151C107.096 68.1925 106.813 67.6884 106.503 67.1751L106.273 66.7954C106.193 66.6532 106.14 66.5564 106.052 66.4227L105.583 65.671L105.114 64.9364L104.619 64.1932L103.716 62.8752L103.698 62.8568C103.664 62.8226 103.634 62.7844 103.609 62.7429C103.609 62.736 103.606 62.7295 103.601 62.7245L103.601 62.7161L102.937 61.8569C102.823 61.707 102.725 61.5655 102.6 61.4241L102.255 60.99L101.911 60.5481L101.76 60.362L101.583 60.1407L100.929 59.3622L100.911 59.3446C100.896 59.3245 100.878 59.3065 100.857 59.2908C100.831 59.2647 100.814 59.2385 100.778 59.194C100.469 58.8666 100.176 58.5221 99.8845 58.2033L98.9108 57.1857L97.8848 56.1767L96.8673 55.2299L96.8403 55.203L96.8404 55.1946L96.8319 55.1946C96.5745 54.964 96.3179 54.7342 96.0442 54.5044L95.6461 54.1855L95.2388 53.8489L94.4249 53.1765L94.0085 52.8491L93.6018 52.54C93.4512 52.4332 93.336 52.3449 93.1776 52.2389L92.7695 51.9468L92.3369 51.6371L92.124 51.478C92.0923 51.4608 92.0628 51.4401 92.0356 51.4165L91.9203 51.345L91.0357 50.7517L90.178 50.1953L90.1512 50.1868C89.8775 50.0094 89.6032 49.8326 89.302 49.6643L88.4167 49.1424L87.5328 48.6291L86.6263 48.1468L86.5993 48.1284L86.4664 48.0577L86.4495 48.0493C86.0422 47.8371 85.6172 47.5974 85.193 47.3853C85.4235 47.456 85.6349 47.5359 85.847 47.6151C86.0592 47.6943 86.2982 47.7834 86.5202 47.881C86.5847 47.8964 86.647 47.9202 86.7055 47.9517C87.0244 48.0669 87.334 48.1998 87.6564 48.337C87.7887 48.39 87.9217 48.4523 88.0454 48.5138C88.4881 48.709 88.9123 48.9126 89.328 49.1247C89.5161 49.2055 89.6993 49.2972 89.8768 49.399C90.0719 49.4966 90.2488 49.5844 90.434 49.6904C90.6285 49.7788 90.8052 49.8848 90.9912 49.9916C91.4692 50.2561 91.938 50.5312 92.3984 50.8232C92.7965 51.0714 93.1953 51.3274 93.575 51.5841C93.6641 51.6463 93.7525 51.6993 93.8409 51.7609C94.0438 51.9115 94.2559 52.0528 94.4687 52.2034C94.6816 52.354 94.8845 52.5131 95.0881 52.6631C95.4869 52.9558 95.8844 53.2656 96.2563 53.5753L96.8403 54.0532C97.0256 54.2031 97.2124 54.3715 97.3983 54.5306L97.4514 54.5836C97.8134 54.8933 98.1591 55.2122 98.4851 55.5297C98.857 55.8747 99.2057 56.2234 99.5387 56.5833C99.8718 56.9432 100.211 57.2911 100.547 57.6623C100.857 57.9989 101.149 58.3432 101.449 58.6975C101.463 58.729 101.484 58.7563 101.512 58.7768C101.83 59.1657 102.13 59.5552 102.431 59.9441C102.733 60.333 103.025 60.7411 103.308 61.1484C103.59 61.5557 103.865 61.953 104.139 62.3688C104.148 62.3957 104.148 62.4049 104.175 62.4134C104.423 62.8207 104.679 63.2273 104.918 63.6438C105.095 63.9443 105.28 64.2455 105.44 64.5637C105.563 64.7758 105.67 64.9886 105.785 65.2008C105.899 65.4129 105.997 65.6173 106.094 65.8203C106.21 66.0324 106.306 66.236 106.413 66.4489C106.598 66.8378 106.776 67.2359 106.953 67.634C107.105 67.9996 107.256 68.3622 107.397 68.7151Z" fill="black"/>
</g>
</g>
<g style="mix-blend-mode:screen" opacity="0.4">
<g style="mix-blend-mode:screen">
<path d="M58.9416 68.9019C58.9507 68.8842 58.9691 68.8842 58.9684 68.875L58.9691 68.8842L58.9416 68.9019Z" fill="white"/>
</g>
</g>
<g style="mix-blend-mode:screen" opacity="0.4">
<g style="mix-blend-mode:screen">
<path d="M100.646 58.9028L100.823 59.2394L100.778 59.1949C100.717 59.1061 100.673 59.0072 100.646 58.9028Z" fill="white"/>
</g>
</g>
<g style="mix-blend-mode:screen" opacity="0.4">
<g style="mix-blend-mode:screen">
<path d="M103.53 62.5746L103.566 62.663C103.552 62.6347 103.54 62.605 103.53 62.5746Z" fill="white"/>
</g>
</g>
<g style="mix-blend-mode:screen" opacity="0.4">
<g style="mix-blend-mode:screen">
<path d="M103.62 62.7434L103.973 63.0263C103.926 63.0125 103.882 62.9918 103.841 62.9647C103.795 62.9424 103.753 62.9126 103.717 62.8764L103.699 62.858L103.62 62.7434Z" fill="white"/>
</g>
</g>
<path d="M76.8966 97.7051V68.6142H83.9279V91.9949H96.0301V97.7051H76.8966Z" fill="#49A09D"/>
<path d="M76.8966 97.7051H75.8966V98.7051H76.8966V97.7051ZM76.8966 68.6142V67.6142H75.8966V68.6142H76.8966ZM83.9279 68.6142H84.9279V67.6142H83.9279V68.6142ZM83.9279 91.9949H82.9279V92.9949H83.9279V91.9949ZM96.0301 91.9949H97.0301V90.9949H96.0301V91.9949ZM96.0301 97.7051V98.7051H97.0301V97.7051H96.0301ZM77.8966 97.7051V68.6142H75.8966V97.7051H77.8966ZM76.8966 69.6142H83.9279V67.6142H76.8966V69.6142ZM82.9279 68.6142V91.9949H84.9279V68.6142H82.9279ZM83.9279 92.9949H96.0301V90.9949H83.9279V92.9949ZM95.0301 91.9949V97.7051H97.0301V91.9949H95.0301ZM96.0301 96.7051H76.8966V98.7051H96.0301V96.7051Z" fill="black"/>
<defs>
<linearGradient id="paint0_linear_6_74" x1="74.6985" y1="470.843" x2="114.545" y2="430.996" gradientUnits="userSpaceOnUse">
<stop stop-color="#00F3FF"/>
<stop offset="0.238" stop-color="#00EFFC"/>
<stop offset="0.44" stop-color="#00E5F4"/>
<stop offset="0.629" stop-color="#00D3E7"/>
<stop offset="0.81" stop-color="#00BAD4"/>
<stop offset="0.983" stop-color="#009BBC"/>
<stop offset="1" stop-color="#0098BA"/>
</linearGradient>
<linearGradient id="paint1_linear_6_74" x1="50.2899" y1="436.643" x2="92.1457" y2="478.499" gradientUnits="userSpaceOnUse">
<stop stop-color="#49A09D"/>
<stop offset="0.149" stop-color="#4A989B"/>
<stop offset="0.375" stop-color="#4E8396"/>
<stop offset="0.65" stop-color="#54618E"/>
<stop offset="0.96" stop-color="#5D3283"/>
<stop offset="1" stop-color="#5F2C82"/>
</linearGradient>
<linearGradient id="paint2_linear_6_74" x1="78.4172" y1="410.651" x2="38.3391" y2="450.73" gradientUnits="userSpaceOnUse">
<stop stop-color="#3E6896"/>
<stop offset="0.247" stop-color="#355881"/>
<stop offset="0.75" stop-color="#1F324E"/>
<stop offset="1" stop-color="#131D32"/>
</linearGradient>
<linearGradient id="paint3_linear_6_74" x1="109.922" y1="442.132" x2="68.995" y2="401.205" gradientUnits="userSpaceOnUse">
<stop stop-color="#233B55"/>
<stop offset="1" stop-color="#131D32"/>
</linearGradient>
</defs>
</svg>
