<svg width="176" height="176" viewBox="0 0 176 176" fill="none" xmlns="http://www.w3.org/2000/svg">
<path d="M101.884 94.7251L101.883 111.37C101.751 111.838 101.6 112.307 101.446 112.771C101.44 112.779 101.437 112.788 101.437 112.798C101.437 112.807 101.437 112.807 101.428 112.816C99.5636 118.359 96.4217 123.387 92.2561 127.492C88.0905 131.598 83.0182 134.667 77.4481 136.451C76.5013 136.751 75.546 137.016 74.5723 137.238C74.5613 137.242 74.5496 137.245 74.5376 137.247C71.7889 137.877 68.9778 138.195 66.1577 138.194H65.7773C70.317 137.857 74.6926 136.353 78.4799 133.827C82.2672 131.302 85.338 127.841 87.3943 123.779L87.3943 123.771C89.1284 120.356 90.0979 116.603 90.2353 112.775C90.3729 108.948 89.6751 105.136 88.1905 101.605C87.996 100.693 87.7662 99.7901 87.4982 98.9027C87.3914 98.5314 87.2642 98.1468 87.1439 97.7791C87.0732 97.5486 86.9933 97.3187 86.9134 97.0974C86.8166 96.8323 86.7275 96.5579 86.6129 96.292C86.5422 96.1068 86.4715 95.9116 86.3916 95.7171C86.2502 95.3636 86.0995 95.0009 85.9496 94.6374C85.7722 94.2393 85.6046 93.8412 85.4094 93.4523C85.3026 93.2394 85.2065 93.0358 85.0905 92.8237C85.0028 92.62 84.8876 92.4072 84.7808 92.2042C84.674 92.0013 84.5595 91.7793 84.4364 91.5671C84.2766 91.2489 84.0914 90.9477 83.9139 90.6472C83.6756 90.2307 83.4189 89.8241 83.1714 89.4168C83.1446 89.4083 83.1438 89.3992 83.1354 89.3723C82.8695 88.9565 82.5951 88.5407 82.3038 88.1518C82.0294 87.7445 81.7374 87.3379 81.4277 86.9476C81.118 86.5573 80.8344 86.1606 80.5077 85.7802C80.4805 85.7597 80.459 85.7324 80.4455 85.701C80.1542 85.3474 79.8622 85.0017 79.5433 84.6658C79.2159 84.2945 78.8885 83.9403 78.5349 83.5867C78.1983 83.2233 77.8533 82.8782 77.4813 82.5331C77.1547 82.2149 76.8089 81.896 76.4475 81.587L76.3952 81.5347C76.2092 81.3756 76.0226 81.2073 75.8373 81.0574C75.6429 80.8884 75.4477 80.73 75.2532 80.5794C74.8813 80.2697 74.4839 79.96 74.0851 79.6672C73.8815 79.5088 73.6778 79.349 73.4657 79.2076C73.2535 79.0662 73.0407 78.9156 72.8378 78.765C72.7494 78.7035 72.661 78.6504 72.5719 78.5882C72.1922 78.3315 71.7934 78.0755 71.3953 77.8273C70.9349 77.5353 70.4661 77.2602 69.9881 76.9958C69.8022 76.889 69.6254 76.783 69.4309 76.6946C69.245 76.5878 69.0682 76.5001 68.8737 76.4032C68.6963 76.3012 68.5131 76.2096 68.325 76.1289C67.9092 75.9167 67.4765 75.7131 67.0423 75.5179C66.9186 75.4564 66.7856 75.3942 66.6534 75.3412C66.3437 75.1997 66.0248 75.0845 65.7023 74.9558C65.6439 74.9243 65.5817 74.9005 65.5171 74.8851C65.2958 74.7868 65.0744 74.6984 64.8439 74.6192C64.6134 74.54 64.4204 74.4601 64.1898 74.3894L64.1785 74.3767L64.1693 74.3675C63.9572 74.2883 63.7366 74.2176 63.5061 74.1469C63.1341 74.0139 62.7544 73.9086 62.3818 73.7933L80.9377 73.7933C83.6886 73.7894 86.4132 74.3281 88.9555 75.3787C91.4978 76.4292 93.8079 77.9709 95.7536 79.9157C97.6992 81.8603 99.2421 84.1697 100.294 86.7116C101.346 89.2534 101.886 91.9778 101.883 94.7286L101.884 94.7251Z" fill="url(#paint0_linear_6_71)"/>
<path d="M101.881 111.372L101.881 128.945C101.886 131.697 101.347 134.423 100.296 136.966C99.2449 139.509 97.7023 141.82 95.7565 143.766C93.8106 145.711 91.5 147.254 88.9568 148.305C86.4136 149.356 83.688 149.895 80.9362 149.891L58.6022 149.89C58.1242 149.642 57.6469 149.386 57.1774 149.111L57.1689 149.111C57.1597 149.102 57.1597 149.102 57.1505 149.103C55.8553 148.355 54.6057 147.53 53.4085 146.634C46.994 141.848 42.2956 135.119 40.0124 127.449C39.4934 125.723 39.1057 123.96 38.8527 122.175L38.8527 122.157C38.7283 121.317 38.6307 120.459 38.5699 119.6C40.231 125.004 43.5811 129.732 48.128 133.091C52.6748 136.45 58.179 138.262 63.832 138.262C64.4967 138.262 65.1423 138.244 65.7794 138.191L66.1598 138.191C68.9799 138.192 71.791 137.875 74.5397 137.245C74.5516 137.243 74.5633 137.24 74.5744 137.235C75.548 137.014 76.5033 136.749 77.4502 136.448C83.0201 134.664 88.0926 131.596 92.2582 127.49C96.4237 123.384 99.5656 118.357 101.43 112.813C101.439 112.804 101.439 112.804 101.439 112.796C101.439 112.786 101.442 112.776 101.448 112.769C101.6 112.307 101.751 111.838 101.881 111.372Z" fill="url(#paint1_linear_6_71)"/>
<path d="M58.6044 149.888H46.725C41.1703 149.888 35.843 147.681 31.9152 143.753C27.9873 139.825 25.7806 134.498 25.7805 128.943V110.909C26.1341 109.998 26.5237 109.095 26.9486 108.219L26.9663 108.202C27.1961 107.724 27.4344 107.256 27.6918 106.795C27.8417 106.512 28.0015 106.229 28.1521 105.945C28.4703 105.415 28.7808 104.892 29.1159 104.379C29.4348 103.883 29.753 103.397 30.0981 102.91C30.4432 102.424 30.8066 101.954 31.1694 101.486C31.5321 101.017 31.9125 100.566 32.293 100.123C32.6734 99.6803 33.0715 99.2384 33.4873 98.8042C33.903 98.3701 34.311 97.955 34.7438 97.5477C35.593 96.7338 36.4875 95.9553 37.4159 95.2206C38.3281 94.4951 39.2728 93.8248 40.2479 93.1849C40.2734 93.1684 40.3001 93.154 40.3278 93.1417C40.8136 92.8228 41.3185 92.5216 41.8127 92.2225C41.8417 92.213 41.8686 92.1982 41.8919 92.1786L42.6089 91.7798C43.2284 91.4432 43.8478 91.1251 44.4835 90.8259C44.784 90.6753 45.0937 90.5424 45.4034 90.401C45.7846 90.2334 46.1735 90.0651 46.5546 89.9145C46.9166 89.7731 47.2886 89.6316 47.6598 89.4895L47.6782 89.481C47.908 89.4011 48.1463 89.3127 48.3768 89.2335C48.7042 89.1268 49.0493 89.0122 49.3859 88.9146C49.6208 88.8287 49.8598 88.7548 50.1022 88.6933C50.6862 88.525 51.2788 88.3652 51.872 88.233C51.8328 88.2677 51.7914 88.3 51.7483 88.3299C48.953 89.775 46.4363 91.7047 44.3152 94.0291C41.2172 97.4245 39.0575 101.569 38.049 106.053C37.0405 110.537 37.2182 115.207 38.5643 119.602C38.6251 120.46 38.7241 121.317 38.8471 122.159V122.177C39.1001 123.962 39.4878 125.724 40.0068 127.451C42.29 135.121 46.9884 141.849 53.4029 146.635C54.6001 147.532 55.8497 148.356 57.1449 149.104C57.1541 149.104 57.1541 149.104 57.1633 149.113H57.1718C57.6491 149.384 58.1257 149.641 58.6044 149.888Z" fill="url(#paint2_linear_6_71)"/>
<path d="M88.1669 101.503C87.9817 100.628 87.7604 99.7517 87.5044 98.9017C87.4245 98.6182 87.3276 98.3177 87.23 98.0348C87.194 97.9111 87.1678 97.8227 87.1501 97.7781C87.0794 97.5476 86.9995 97.3178 86.9196 97.0965C86.8227 96.8313 86.7336 96.557 86.6191 96.2911C86.5484 96.1058 86.4777 95.9107 86.3978 95.7162C86.2563 95.3627 86.1057 94.9999 85.9558 94.6365C85.7783 94.2384 85.6008 93.8403 85.4156 93.4514C85.3088 93.2385 85.2126 93.0349 85.0967 92.8227C84.9998 92.6198 84.8937 92.4063 84.787 92.2033C84.6802 92.0004 84.5656 91.7783 84.4426 91.5662C84.2828 91.248 84.0975 90.9468 83.9201 90.6463C83.6818 90.2298 83.4251 89.8232 83.1776 89.4159C83.1507 89.4074 83.15 89.3982 83.1415 89.3714C82.8672 88.9556 82.5928 88.5483 82.31 88.1509C82.0271 87.7535 81.7351 87.3455 81.4339 86.9467C81.1326 86.5479 80.8321 86.1682 80.5139 85.7793C80.4866 85.7588 80.4651 85.7315 80.4517 85.7001C80.1512 85.3458 79.8591 85.0014 79.5494 84.6649C79.2136 84.2936 78.8862 83.9394 78.5411 83.5858C78.196 83.2323 77.8594 82.8773 77.4875 82.5322C77.1608 82.214 76.815 81.8951 76.4537 81.5861L76.3986 81.531C76.2126 81.3719 76.0259 81.2036 75.8407 81.0537L75.2566 80.5757C74.8846 80.2659 74.4873 79.9562 74.0884 79.6635C73.8848 79.5136 73.6727 79.3637 73.469 79.2039C73.2654 79.0441 73.044 78.9118 72.8411 78.7612C72.7527 78.6997 72.6643 78.6467 72.5752 78.5844C72.1955 78.3278 71.7967 78.0718 71.3986 77.8236C70.9383 77.5316 70.4695 77.2565 69.9915 76.992C69.8055 76.8853 69.6287 76.7792 69.4343 76.6908C69.2483 76.584 69.0715 76.4964 68.8771 76.3995C68.6997 76.2976 68.5164 76.2059 68.3283 76.1251C67.9126 75.913 67.4883 75.7093 67.0457 75.5142C66.9219 75.4527 66.789 75.3904 66.6567 75.3374C66.3378 75.1967 66.0281 75.0638 65.7057 74.952C65.6474 74.9206 65.585 74.8968 65.5204 74.8813C65.2991 74.783 65.0778 74.6946 64.8473 74.6155C64.6167 74.5363 64.4237 74.4564 64.1932 74.3856L64.1783 74.3764L64.1691 74.3673C63.957 74.2881 63.7364 74.2174 63.5059 74.1466C63.1339 74.0137 62.7542 73.9083 62.3816 73.7931L46.7284 73.7924L46.7199 73.7924C43.9704 73.7919 41.2477 74.333 38.7074 75.385C36.1671 76.4369 33.8589 77.9791 31.9147 79.9232C29.9705 81.8674 28.4284 84.1756 27.3765 86.7159C26.3245 89.2563 25.7833 91.9789 25.7839 94.7284L25.7839 110.913C26.1466 109.984 26.5447 109.073 26.9789 108.187C27.4823 107.144 28.0395 106.137 28.6335 105.153C28.7834 104.895 28.9517 104.639 29.12 104.383C29.4389 103.888 29.7571 103.401 30.1022 102.915C30.4472 102.428 30.7923 101.959 31.1734 101.49C31.527 101.03 31.8989 100.569 32.297 100.127C32.6951 99.6852 33.0762 99.2334 33.4913 98.8084C33.8894 98.3749 34.3144 97.95 34.7478 97.5519C35.5971 96.738 36.4909 95.9503 37.42 95.2248C38.3259 94.5043 39.2682 93.8309 40.2435 93.2074C40.2706 93.1837 40.3003 93.1631 40.3319 93.1459C40.8007 92.8355 41.2695 92.5434 41.756 92.2606C43.3021 91.3696 44.9077 90.5862 46.5615 89.9158C46.9235 89.7744 47.2955 89.633 47.6667 89.4909L47.6851 89.4824C47.9149 89.4025 48.1532 89.3141 48.3837 89.2349C48.4234 89.2272 48.462 89.2151 48.499 89.1988C48.8002 89.0928 49.1007 89.0044 49.3927 88.916C49.6276 88.8301 49.8666 88.7562 50.109 88.6947C50.6931 88.5264 51.2857 88.3666 51.8789 88.2343C51.8351 88.2612 51.7997 88.305 51.7552 88.3312C51.8528 88.2789 51.9404 88.2435 52.0295 88.1898L52.0557 88.1905C55.7093 86.3534 59.7439 85.4014 63.8333 85.4116C70.5176 85.4039 76.9548 87.9377 81.8405 92.4996C81.8662 92.5183 81.8874 92.5424 81.9027 92.5703C83.4152 93.9851 84.7546 95.5742 85.8929 97.3044L85.9021 97.3136C86.0965 97.6141 86.291 97.9146 86.4777 98.2243C87.1289 99.3079 87.7015 100.437 88.191 101.602C88.181 101.57 88.1729 101.537 88.1669 101.503Z" fill="url(#paint3_linear_6_71)"/>
<g style="mix-blend-mode:multiply" opacity="0.08">
<g style="mix-blend-mode:multiply">
<path d="M101.881 95.5324L101.881 111.372C99.6423 119.112 94.9469 125.915 88.5032 130.753C82.0594 135.591 74.2169 138.202 66.1591 138.192L65.7787 138.192C70.3183 137.855 74.6939 136.351 78.4812 133.826C82.2686 131.3 85.3393 127.839 87.3956 123.778C87.4048 123.769 87.3956 123.769 87.3956 123.769C92.8842 117.475 98.1486 108.458 101.881 95.5324Z" fill="black"/>
</g>
</g>
<g style="mix-blend-mode:multiply" opacity="0.08">
<g style="mix-blend-mode:multiply">
<path d="M68.9125 149.888L58.6043 149.888C52.9545 146.973 48.1464 142.658 44.6392 137.355C41.1321 132.052 39.0429 125.939 38.5712 119.599C39.9233 124.003 42.4065 127.975 45.7731 131.12C51.6575 139.343 59.6515 145.827 68.9125 149.888Z" fill="black"/>
</g>
</g>
<g style="mix-blend-mode:multiply" opacity="0.08">
<g style="mix-blend-mode:multiply">
<path d="M51.8797 88.2309C51.8404 88.2657 51.799 88.298 51.7559 88.3278C48.9606 89.7729 46.4439 91.7026 44.3228 94.0271C38.7841 98.8318 31.8904 106.539 25.7846 118.467L25.7853 110.91C26.3302 109.497 26.9687 108.123 27.6966 106.795C27.8465 106.512 28.0063 106.23 28.1569 105.946C28.4751 105.416 28.7855 104.893 29.1207 104.38C29.4396 103.884 29.7578 103.398 30.1029 102.911C30.4479 102.425 30.8114 101.955 31.1741 101.486C31.5369 101.018 31.9174 100.566 32.2978 100.124C32.6782 99.6811 33.0762 99.2392 33.492 98.805C33.9078 98.3709 34.3158 97.9558 34.7486 97.5485C35.5978 96.7346 36.4923 95.9561 37.4207 95.2214C38.3329 94.4959 39.2776 93.8256 40.2527 93.1856C40.2782 93.1692 40.3049 93.1547 40.3326 93.1424C40.8184 92.8235 41.3232 92.5224 41.8175 92.2233C41.8465 92.2138 41.8734 92.1989 41.8968 92.1794L42.6138 91.7805C43.2332 91.444 43.8526 91.1258 44.4883 90.8267C44.7888 90.676 45.0985 90.5432 45.4082 90.4018C45.7893 90.2342 46.1782 90.0659 46.5594 89.9153C47.1604 89.6763 47.7714 89.4457 48.3816 89.2343C48.709 89.1275 49.054 89.013 49.3906 88.9154C49.6255 88.8294 49.8646 88.7555 50.1069 88.6941C50.6931 88.5223 51.2864 88.3631 51.8797 88.2309Z" fill="black"/>
</g>
</g>
<g style="mix-blend-mode:multiply" opacity="0.08">
<g style="mix-blend-mode:multiply">
<path d="M88.1937 101.601C87.7042 100.435 87.1317 99.3064 86.4804 98.2228C86.3287 97.8957 86.1353 97.5896 85.9048 97.3121L85.8956 97.3029C84.7573 95.5727 83.4179 93.9836 81.9054 92.5688C81.8902 92.541 81.8689 92.5168 81.8432 92.4981C76.0478 86.3929 65.4383 78.6149 46.7318 73.7917L62.3851 73.7924C62.757 73.9069 63.1375 74.013 63.5094 74.1459C63.7392 74.2173 63.9605 74.2874 64.1727 74.3665C64.1819 74.3673 64.1903 74.3842 64.1995 74.3849C64.4301 74.4556 64.6415 74.5355 64.8536 74.6147C65.0657 74.6939 65.3047 74.7831 65.5267 74.8807C65.5913 74.896 65.6536 74.9199 65.712 74.9514C66.0309 75.0667 66.3406 75.1994 66.663 75.3366C66.7953 75.3897 66.9282 75.452 67.0519 75.5135C67.4946 75.7087 67.9189 75.9122 68.3346 76.1243C68.5227 76.2052 68.7059 76.2968 68.8833 76.3987C69.0785 76.4963 69.2553 76.584 69.4405 76.69C69.6351 76.7785 69.8118 76.8845 69.9977 76.9913C70.4758 77.2557 70.9446 77.5309 71.405 77.8229C71.8031 78.0711 72.2017 78.3271 72.5814 78.5837C72.6705 78.646 72.7589 78.699 72.8474 78.7606C73.0503 78.9112 73.2625 79.0526 73.4753 79.2032C73.6881 79.3538 73.8911 79.5129 74.0948 79.6628C74.4936 79.9555 74.8909 80.2652 75.2629 80.5749L75.8469 81.053C76.0322 81.2029 76.2189 81.3711 76.4048 81.5302L76.4579 81.5832C76.8199 81.8929 77.1658 82.2119 77.4917 82.5294C77.8637 82.8745 78.2122 83.223 78.5453 83.5829C78.8783 83.9428 79.2176 84.2908 79.5535 84.662C79.8632 84.9986 80.1554 85.343 80.4559 85.6972C80.4693 85.7287 80.4907 85.7559 80.518 85.7764C80.8362 86.1653 81.1367 86.5549 81.438 86.9439C81.7392 87.3328 82.0313 87.7408 82.3141 88.1481C82.597 88.5554 82.8714 88.9527 83.1458 89.3685C83.1542 89.3954 83.1548 89.4046 83.1817 89.4131C83.4292 89.8204 83.6859 90.2269 83.9243 90.6434C84.1018 90.944 84.287 91.2453 84.4468 91.5635C84.5698 91.7756 84.6766 91.9884 84.7911 92.2006C84.9057 92.4127 85.004 92.617 85.1009 92.8199C85.2169 93.032 85.3129 93.2357 85.4197 93.4486C85.6049 93.8374 85.7826 94.2355 85.96 94.6336C86.11 94.9971 86.2611 95.3591 86.4018 95.7134C86.4817 95.9078 86.5525 96.103 86.6232 96.2883C86.7377 96.5541 86.8269 96.8284 86.9238 97.0936C87.0037 97.3149 87.0836 97.5447 87.1543 97.7752C87.172 97.8198 87.1982 97.9083 87.2343 98.032L87.4554 98.8459C87.7114 99.8019 88.0565 101.085 88.171 101.5C88.1765 101.534 88.1841 101.568 88.1937 101.601Z" fill="black"/>
</g>
</g>
<g style="mix-blend-mode:multiply" opacity="0.25">
<g style="mix-blend-mode:multiply">
<path d="M57.1699 149.11C57.1607 149.1 57.1607 149.1 57.1515 149.101C55.8563 148.353 54.6068 147.528 53.4095 146.632C46.995 141.846 42.2966 135.118 40.0134 127.447C39.4944 125.721 39.1067 123.958 38.8537 122.174C38.8891 122.271 39.022 122.766 39.261 123.554C39.5177 124.439 39.9158 125.695 40.4567 127.154C40.7488 127.889 41.0408 128.676 41.3944 129.49C41.5627 129.906 41.7578 130.322 41.9608 130.747C42.1637 131.172 42.3504 131.596 42.5717 132.029C42.9967 132.906 43.4916 133.772 43.9958 134.649C44.5 135.525 45.0579 136.401 45.6441 137.243C46.2105 138.102 46.8214 138.934 47.4493 139.73C48.0772 140.526 48.7129 141.295 49.3691 142.013C50.0253 142.731 50.6553 143.414 51.2896 144.04C51.9239 144.665 52.5193 145.234 53.121 145.765C53.7228 146.296 54.2361 146.756 54.7403 147.172C55.2445 147.589 55.6701 147.924 56.0329 148.216C56.7103 148.746 57.1254 149.065 57.1699 149.11Z" fill="black"/>
</g>
</g>
<g style="mix-blend-mode:multiply" opacity="0.25">
<g style="mix-blend-mode:multiply">
<path d="M101.431 112.812C99.5667 118.355 96.4248 123.383 92.2592 127.488C88.0937 131.594 83.0212 134.663 77.4512 136.447C76.5044 136.747 75.5491 137.013 74.5754 137.234C74.6999 137.172 75.2302 136.96 76.0716 136.641C76.5405 136.447 77.186 136.261 77.7963 135.969C78.4511 135.659 79.243 135.371 80.0088 134.968C80.3984 134.774 80.805 134.571 81.23 134.367C81.6458 134.137 82.0707 133.898 82.5127 133.659C82.9683 133.423 83.4113 133.163 83.8399 132.881C84.2833 132.597 84.7521 132.341 85.2032 132.031C85.6543 131.721 86.114 131.412 86.575 131.093C87.036 130.775 87.4688 130.412 87.9284 130.075C88.388 129.739 88.8307 129.368 89.2733 128.996C89.716 128.624 90.1671 128.262 90.5737 127.846C90.9987 127.448 91.4413 127.076 91.8486 126.668C92.2559 126.261 92.6533 125.837 93.0514 125.43C93.7953 124.563 94.5823 123.758 95.2378 122.882C95.9364 122.05 96.5297 121.174 97.1314 120.369C97.4058 119.953 97.6709 119.536 97.9276 119.148C98.1927 118.775 98.438 118.388 98.6623 117.989C99.1049 117.228 99.5299 116.538 99.8573 115.9C100.185 115.263 100.511 114.716 100.716 114.237C101.086 113.467 101.351 112.963 101.431 112.812Z" fill="black"/>
</g>
</g>
<g style="mix-blend-mode:multiply" opacity="0.25">
<g style="mix-blend-mode:multiply">
<path d="M47.6668 89.4868L45.8637 90.5121C45.2534 90.8394 44.6687 91.2107 44.0754 91.5649C43.4821 91.9192 42.908 92.2996 42.3331 92.6624L42.1111 92.8038L41.9258 92.9367L41.4923 93.2372L41.0674 93.5378L40.8552 93.6891L40.7577 93.7598C40.7665 93.7531 40.773 93.7436 40.776 93.7329L40.687 93.8121L38.6696 95.3614L38.1654 95.7411L38.0325 95.8302L37.9886 95.8656L37.9794 95.8649V95.8748L37.971 95.8832L37.9434 95.9009L37.732 96.0869L36.7851 96.9361C36.4662 97.2197 36.1565 97.5025 35.8291 97.7677L35.3511 98.1835L34.9353 98.5823L34.0599 99.4492C33.7757 99.7589 33.4752 100.059 33.1838 100.361L32.9625 100.59L32.9095 100.643L32.9003 100.644L32.8918 100.661L32.8741 100.67L32.7758 100.794L32.3516 101.272L31.9351 101.741L31.7413 101.953L31.5377 102.192L30.7146 103.165L29.9531 104.139L29.555 104.634L29.1837 105.13C28.9363 105.413 28.6973 105.812 28.4575 106.148C27.981 106.838 27.4846 107.528 26.9726 108.198C27.2024 107.721 27.4407 107.252 27.6981 106.791C27.848 106.508 28.0078 106.225 28.1584 105.942C28.4766 105.412 28.7871 104.889 29.1222 104.376C29.4411 103.88 29.7593 103.393 30.1044 102.907C30.4495 102.42 30.8129 101.951 31.1757 101.482C31.5384 101.013 31.9188 100.562 32.2993 100.12C32.6797 99.6769 33.0778 99.2349 33.4936 98.8008C33.9093 98.3666 34.3173 97.9515 34.7501 97.5442C35.5993 96.7304 36.4938 95.9518 37.4222 95.2171C38.3344 94.4917 39.2791 93.8213 40.2542 93.1814C40.2797 93.165 40.3064 93.1506 40.3341 93.1382C40.8199 92.8193 41.3248 92.5181 41.819 92.219C41.848 92.2096 41.8749 92.1947 41.8982 92.1752L42.6152 91.7764C43.2347 91.4398 43.8541 91.1216 44.4898 90.8225C44.7903 90.6719 45.1 90.5389 45.4097 90.3975C45.7908 90.2299 46.1798 90.0616 46.5609 89.911C46.9236 89.7703 47.2956 89.6289 47.6668 89.4868Z" fill="black"/>
</g>
</g>
<g style="mix-blend-mode:multiply" opacity="0.25">
<g style="mix-blend-mode:multiply">
<path d="M86.3968 95.7151C86.0962 95.1925 85.8128 94.6884 85.503 94.1751L85.2732 93.7954C85.1933 93.6532 85.1403 93.5564 85.0519 93.4227L84.583 92.671L84.1143 91.9364L83.6186 91.1932L82.7163 89.8752L82.698 89.8568C82.6638 89.8226 82.6342 89.7844 82.6095 89.7429C82.6089 89.736 82.6059 89.7295 82.601 89.7245L82.6011 89.7161L81.9371 88.8569C81.8226 88.707 81.7249 88.5655 81.6005 88.4241L81.2555 87.99L80.9111 87.5481L80.7604 87.362L80.5829 87.1407L79.9289 86.3622L79.9112 86.3446C79.8956 86.3245 79.8775 86.3065 79.8575 86.2908C79.8313 86.2647 79.8137 86.2385 79.7776 86.194C79.4686 85.8666 79.1765 85.5222 78.8845 85.2033L77.9108 84.1857L76.8848 83.1767L75.8673 82.2299L75.8404 82.203L75.8404 82.1946L75.832 82.1946C75.5746 81.9641 75.3179 81.7343 75.0442 81.5044L74.6461 81.1855L74.2388 80.849L73.425 80.1765L73.0085 79.8491L72.6018 79.54C72.4512 79.4333 72.336 79.3449 72.1776 79.2389L71.7695 78.9468L71.3369 78.6371L71.124 78.478C71.0924 78.4608 71.0628 78.4401 71.0356 78.4165L70.9203 78.345L70.0357 77.7518L69.178 77.1953L69.1512 77.1868C68.8776 77.0094 68.6032 76.8326 68.302 76.6643L67.4167 76.1425L66.5328 75.6291L65.6263 75.1468L65.5993 75.1284L65.4664 75.0577L65.4495 75.0493C65.0422 74.8371 64.6172 74.5974 64.193 74.3853C64.4235 74.456 64.6349 74.5359 64.847 74.6151C65.0592 74.6943 65.2982 74.7834 65.5202 74.881C65.5847 74.8964 65.647 74.9202 65.7055 74.9517C66.0244 75.0669 66.334 75.1998 66.6565 75.337C66.7887 75.39 66.9217 75.4523 67.0454 75.5138C67.4881 75.709 67.9123 75.9126 68.3281 76.1247C68.5161 76.2055 68.6994 76.2972 68.8768 76.3991C69.0719 76.4966 69.2488 76.5844 69.434 76.6905C69.6285 76.7788 69.8052 76.8848 69.9912 76.9916C70.4692 77.2561 70.9381 77.5312 71.3984 77.8232C71.7965 78.0714 72.1953 78.3274 72.575 78.5841C72.6641 78.6463 72.7525 78.6993 72.8409 78.7609C73.0438 78.9115 73.2559 79.0528 73.4687 79.2034C73.6816 79.3541 73.8845 79.5132 74.0882 79.6631C74.487 79.9558 74.8844 80.2656 75.2564 80.5753L75.8404 81.0532C76.0256 81.2031 76.2124 81.3715 76.3983 81.5306L76.4514 81.5836C76.8134 81.8934 77.1591 82.2122 77.4851 82.5297C77.857 82.8747 78.2057 83.2234 78.5388 83.5833C78.8718 83.9433 79.2111 84.2911 79.547 84.6623C79.8567 84.9989 80.1488 85.3433 80.4493 85.6975C80.4626 85.729 80.4841 85.7563 80.5116 85.7768C80.8298 86.1657 81.1302 86.5552 81.4315 86.9441C81.7327 87.3331 82.0248 87.7411 82.3076 88.1484C82.5905 88.5557 82.8648 88.953 83.1391 89.3688C83.1476 89.3957 83.1484 89.4049 83.1753 89.4134C83.4227 89.8207 83.6794 90.2273 83.9177 90.6438C84.0952 90.9443 84.2804 91.2455 84.4402 91.5637C84.5632 91.7758 84.67 91.9886 84.7846 92.2008C84.8991 92.4129 84.9975 92.6173 85.0943 92.8203C85.2103 93.0324 85.3065 93.236 85.4132 93.4489C85.5985 93.8378 85.776 94.2359 85.9535 94.634C86.1055 94.9996 86.256 95.3622 86.3968 95.7151Z" fill="black"/>
</g>
</g>
<g style="mix-blend-mode:screen" opacity="0.4">
<g style="mix-blend-mode:screen">
<path d="M37.9415 95.9019C37.9507 95.8842 37.9691 95.8842 37.9684 95.875L37.9691 95.8842L37.9415 95.9019Z" fill="white"/>
</g>
</g>
<g style="mix-blend-mode:screen" opacity="0.4">
<g style="mix-blend-mode:screen">
<path d="M79.6461 85.9029L79.8229 86.2394L79.7784 86.1949C79.7175 86.1061 79.6727 86.0072 79.6461 85.9029Z" fill="white"/>
</g>
</g>
<g style="mix-blend-mode:screen" opacity="0.4">
<g style="mix-blend-mode:screen">
<path d="M82.5304 89.5746L82.5664 89.663C82.5519 89.6347 82.5398 89.605 82.5304 89.5746Z" fill="white"/>
</g>
</g>
<g style="mix-blend-mode:screen" opacity="0.4">
<g style="mix-blend-mode:screen">
<path d="M82.6198 89.7434L82.9733 90.0263C82.9264 90.0126 82.8818 89.9918 82.8411 89.9648C82.7953 89.9424 82.7534 89.9126 82.7174 89.8764L82.699 89.858L82.6198 89.7434Z" fill="white"/>
</g>
</g>
<path d="M78.3611 123.667V114C78.3611 113.586 78.6969 113.25 79.1111 113.25H81C81.4142 113.25 81.75 113.586 81.75 114V124.667C81.75 126.327 80.1495 127.75 78.1111 127.75H50.8889C48.8505 127.75 47.25 126.327 47.25 124.667V114C47.25 113.586 47.5858 113.25 48 113.25H49.8889C50.3031 113.25 50.6389 113.586 50.6389 114V123.667C50.6389 124.357 51.1985 124.917 51.8889 124.917H77.1111C77.8015 124.917 78.3611 124.357 78.3611 123.667ZM68.2561 112.899L70.9923 110.562C71.2732 110.322 71.6869 110.323 71.9674 110.563L73.1737 111.597C73.5229 111.897 73.5229 112.437 73.1737 112.736L64.9881 119.752C64.7072 119.993 64.2928 119.993 64.0119 119.752L55.8263 112.736C55.4771 112.437 55.4771 111.897 55.8263 111.597L57.0326 110.563C57.3131 110.323 57.7268 110.322 58.0077 110.562L60.7439 112.899C61.5552 113.591 62.8056 113.015 62.8056 111.948V99C62.8056 98.5858 63.1413 98.25 63.5556 98.25H65.4444C65.8587 98.25 66.1944 98.5858 66.1944 99V111.948C66.1944 113.015 67.4448 113.591 68.2561 112.899Z" fill="#00BAD4" stroke="black" stroke-width="0.5"/>
<defs>
<linearGradient id="paint0_linear_6_71" x1="53.6985" y1="497.843" x2="93.5454" y2="457.996" gradientUnits="userSpaceOnUse">
<stop stop-color="#00F3FF"/>
<stop offset="0.238" stop-color="#00EFFC"/>
<stop offset="0.44" stop-color="#00E5F4"/>
<stop offset="0.629" stop-color="#00D3E7"/>
<stop offset="0.81" stop-color="#00BAD4"/>
<stop offset="0.983" stop-color="#009BBC"/>
<stop offset="1" stop-color="#0098BA"/>
</linearGradient>
<linearGradient id="paint1_linear_6_71" x1="29.2899" y1="463.643" x2="71.1457" y2="505.499" gradientUnits="userSpaceOnUse">
<stop stop-color="#49A09D"/>
<stop offset="0.149" stop-color="#4A989B"/>
<stop offset="0.375" stop-color="#4E8396"/>
<stop offset="0.65" stop-color="#54618E"/>
<stop offset="0.96" stop-color="#5D3283"/>
<stop offset="1" stop-color="#5F2C82"/>
</linearGradient>
<linearGradient id="paint2_linear_6_71" x1="57.4172" y1="437.652" x2="17.3391" y2="477.73" gradientUnits="userSpaceOnUse">
<stop stop-color="#3E6896"/>
<stop offset="0.247" stop-color="#355881"/>
<stop offset="0.75" stop-color="#1F324E"/>
<stop offset="1" stop-color="#131D32"/>
</linearGradient>
<linearGradient id="paint3_linear_6_71" x1="88.9216" y1="469.132" x2="47.995" y2="428.205" gradientUnits="userSpaceOnUse">
<stop stop-color="#233B55"/>
<stop offset="1" stop-color="#131D32"/>
</linearGradient>
</defs>
</svg>
